<?xml version="1.0" encoding="UTF-8"?>
<svg xmlns="http://www.w3.org/2000/svg" version="1.1" viewBox="0 0 500 159.5">
  <defs>
    <style>
      .cls-1 {
        fill: #fff;
      }
    </style>
  </defs>
  <!-- Generator: Adobe Illustrator 28.7.1, SVG Export Plug-In . SVG Version: 1.2.0 Build 142)  -->
  <g>
    <g id="Capa_1">
      <g>
        <g>
          <path class="cls-1" d="M270.2,39.8c-2.6,0-5.7-.4-8.8-1.1-.3,0-.2.2-.7,0-.6-.1-.6-.3-1.2-.4-.2.6,1.8.6,1.4,1.2,3.1.2,6,.6,9.1.9.3,0,.6-.2.7-.5-.2,0-.5,0-.4-.2Z"/>
          <path class="cls-1" d="M292,44c0,.2.3.3.7.4,0-.2-.5-.2-.7-.4Z"/>
          <path class="cls-1" d="M322.2,46.5c.5,0-.6,0,0,.2,0-.1.5,0,.7,0,.1-.1-.6-.3-.7-.2Z"/>
          <path class="cls-1" d="M338.5,49.8c.4,0,.5,0,.5-.2-.4,0-.5,0-.5.2Z"/>
          <path class="cls-1" d="M370.8,52.6c-.8,0-1.5,0-2.3,0-1.6-.2-3.5-.7-5.1-.7-.5-.4-.4,0-1.3-.3-.1.1-.4.3-.2.4,0,0,.1.1.3.2.9,0,1.5.2,2.3.2,4.3,1.4,8.4,1.1,13.7,2.1.3,0,.6,0,1,0,2.1.4,5.2,1.2,6.6.6-1.5-.4-3.4-.6-5.2-.9-3.2-.5-6.6-1.1-9.8-1.3Z"/>
          <path class="cls-1" d="M384.7,53.5c-.7,0-1.3-.4-1.8-.3,0-.3-.9-.4-1.4-.4-.2.1-.4.4-.2.5,1.5.2,3.2.6,4.1,1,2.3.5,5.1,1.6,7.6,1.6,1.9.5,3.4.3,5.4.8.3,0,.8,0,.6-.2-4.9-1.1-10.3-1.7-14.2-2.9Z"/>
          <path class="cls-1" d="M395.4,54.7c.7.3,1.4.4,2.2.6.4-.1,1.1,0,1.3-.2-1.2,0-2.3-.4-3.5-.5v.2Z"/>
          <path class="cls-1" d="M399.3,56.6c.6,0,1.1.2,1.6.1-.3-.1-1.6-.4-1.6-.1Z"/>
          <path class="cls-1" d="M437.3,62c.3,0,.3,0,.6,0-.6,0,.6.3.7.2-.2,0-.4,0-.4-.1,0,0,.2,0,.2-.1-.8,0-2-.2-3.1-.3-.2.2.4,0,.4.2-.2,0-1.1,0-1-.3-1.8-.1-3.4-.5-4.9-.4-.6-.4-1.5-.1-1.7,0,2.2.3,3.3,0,5,.4.6-.3,1.8.5,2.4.4-.4-.3,1.3,0,1.7,0,.2.1.1.3.4.3,0,0,.4,0,.4,0-.9,0-.1-.2-.7-.4Z"/>
          <path class="cls-1" d="M438.9,62.1c0,.1,0,.3.2.3.3,0,0-.2-.2-.3Z"/>
          <path class="cls-1" d="M440.6,62.3c-.3,0-.2-.2-.7-.3,0,.1.5.4.7.3Z"/>
          <path class="cls-1" d="M441.9,62.7c.5,0,1.2.3,1.3,0-.5,0-1.2-.3-1.3,0Z"/>
          <path class="cls-1" d="M444,63c.4,0,.7,0,.9,0-.5,0-.6,0-.9,0Z"/>
          <path class="cls-1" d="M458.8,67.5c0,.2.6.3.8.5,0-.2-.3-.3-.8-.5Z"/>
          <path class="cls-1" d="M465,61.7c2.2,0,4.1.1,6.3.3,4.5.4,7,2.4,11.4,2.9.2,0,.3.2.5.3.3-.3,1.7.5,2,0-.7-.5-2.3-1-3.6-1.1-.4-.4-1.2-.3-1.9-.5-.9-.3-1.7-.8-2.5-1-.2,0-.5,0-.6,0-.6-.2-1.1-.5-1.9-.6-1.9-.3-2.4-.3-4.1-.5-3.4-.3-6.9-.6-8.2.3-.7-.1-1.1,0-1.6.2l-5.6-1.1c-1.8-1.3-3.4-2.6-6.1-3.7-.9,0-1.8-.2-2.2-.5,4.1-.2,11.9,2,16.4,1.8-.4-.3-1.1-.3-1.7-.4-3.3-.5-6.8-1.1-10.8-1.6-2.3-.3-4.6-.1-7.2-.6-1.5-.3-2.6-.7-4.4-.9,0,0-.4-.1-.2-.3-2-.2-3.5-1.5-5.5-1.2,0-.1.4,0,.2-.2-1.2-.3-2.5-.7-3.7-.6-2.6-.6-5.8-1.4-8.5-1.5-.9-.3-2-.3-3-.6-4.5-1.2-9.4-1.3-14-1.4l-1-.2c-1.4,0-2.8,0-4.3,0-3.2-.2-6.9-1-10.2-1.7,0,0,0-.2-.3-.2-3.2-.8-6.1-1.8-9.5-2.4-.8-.1-1.6,0-2.4-.4-.9,0-2,0-3,0-1.9-.4-5-.8-6.7-.6-.8-.2-1.6-.3-2.3-.3l-109.8-21.2s0,0,0,0c-.1.1-.2-.4-.3-.3,0,.1,0,.2,0,.3h0c0-.2,0-.4,0-.1,0,.4-.3-.5-.4-.7-.3-.1-.5-.4-.7-.3l.2.5c.2,0,.4.3.6.6h-.2s0,.2,0,.2c0-.3-.2-.4-.3-.5-.3,0-.8-.6-1.2-.9-.4-.3-.7-.4-.8.2v-.4c-.4,0-.5,0-.6.2-.3-.4-.5-.5-.8-.5h0S25.3,65.2,25.3,65.2c-.3,0-.9,0-1.1.2l-9.6,1.9,89.7-14.2h0c.4,0,1.2,0,1.1-.2,0,0,0,0-.1,0l2-.3s0,0,0,.2h.4c0-.1,0-.2,0-.2l1.1-.2s-.2.1-.3.2c.6,0,1.3-.1,1.4-.3h.6c.1,0,1.2-.2,1.8-.3-.2.2-.1.2.1.2-.4,0-.7.1-.9.2.2,0,.5,0,.6-.1,0,0,0,0,.1.1-.6.3-1.5,0-2.2.4.6,0,.4.1,1,.1,0,0,0-.1.3-.2.2,0,.3,0,.3.1-.3,0-.8,0-1.1.3.1,0,.2,0,.2,0-.2,0-.1.1-.4.1,0,0-.1,0-.1-.1.3,0,.1-.2.3-.3-.3,0-.7,0-.9-.2.6-.3,2-.3,2.4-.6-.9.2-1.2.1-1.9.3,0,0,.1-.1,0-.1-.7.4-1.7.7-3.2,1,.2,0-.9-.2-1,0,.3,0,.6-.1.5,0,.2,0,.2,0,.4-.1-.2.2.4,0,.4.1-.1.1.3.2,0,.3,0-.1-.3,0-.4-.1v.2c.7,0,1-.2,1.5-.2,0-.3.9-.1,1.2-.3-.2,0-.1,0-.1-.2-.5,0-.8,0-1.2.2,0,0,.2,0,.2,0-.5,0-.3.2-.7.2-.8-.6,2-.6,2.4-.5,0,0,0,.1-.2.2-.2,0-.6,0-.6.1-.3.2-2.3.2-3,.6,1.3-.2,2.6-.4,4-.6,0,0,0,0,0,0,.4,0-.8.1-.7.3.4,0,.9-.1,1-.3,0,0-.1,0-.2,0,.6,0,1.3-.2,1.9-.3-.1,0-.4.1-.4.2.7,0,1.5-.3,1.7-.1-.4,0-.8.1-1.1.3.3,0,.2,0,.2.2h.2c.1,0,.2-.1.2-.1,0,0-.2,0-.2,0,.6-.3,2.9-.3,3.1-.8-.6,0-2.4.4-3.4.5.9-.3,1.7-.5,3-.7,0,.1.3,0,.3.2.5-.1,1-.2,1.3-.2-.3,0-.4,0-.8.1.2.2-.4.2-.4.4.2,0,.2-.1.3,0-.7.2-1.9.3-2.6.5.5,0,.1.2,0,.2.3,0,.5.2.5,0,.5,0,.7,0,1.1,0,0,0-.2,0-.2.1.2,0,.5,0,.6-.1-.2,0-.4,0-.3,0,.2-.2.5-.2.7-.3h0c1,0,2.2-.2,3.4-.2-.2,0-.6,0-.6.1.4,0,0,.1.2,0,0-.1,1.2-.2.6-.2.7-.2,1.3,0,1.2.1-.1,0-.2-.1-.3,0,.1,0,.3,0,.4,0-.4,0-.5,0-.2.1-.3,0-.6,0-.7,0,.1,0,.2-.1.3-.2-.6.2-2.2.3-2.4.5-.2,0-.4,0-.5,0,.4,0,0-.1,0-.1-.1.1,0,.3-.3.3-.3,0-.4-.2-.9,0,.3-.2-.6-.2-.8,0,.2,0-.5.3-.5.5,0,0-.2,0-.3-.1-.3,0-.3.1-.6.1,0,.3-.5.1-.6.3,0,0,0,0-.1,0,0-.1.4,0,.4-.2-.6,0-.5,0-.7-.1-.5,0-.6.3-.8.2.3-.1.6-.4,0-.4-.3.3-1.1,0-1.7.4.5,0,1.3-.2,1.8-.2-.3.1-.8.2-1.1.3.5,0,1,.1,1.6,0,0,0-.5,0-.4.2.3-.1.7,0,.9-.2,0,.2.4-.1.7,0-.3,0-.2.2-.6.2h0c-.5,0-1,0-1.4.2.3,0,.4.1.7.2-.5.1-.7,0-1.1.1,0,0,0,0,0,.1.4-.2.7-.1,1.3-.2-.1-.3.8,0,.9-.3-.2,0-.4,0-.4,0,.6-.1.9,0,1.4,0-.3,0-1.1.2-.9.2.1,0,.1,0,.3,0,0,.1-.2.2.2.2.2-.1-.3,0,0-.2.2,0,.3,0,.6,0-.1,0-.6.1-.3,0,.5,0,.6,0,.6-.2.2,0,.1,0,.3,0,.1,0,.3,0,.4.1-.6.2-1.6.1-1.9.4.2,0,.6,0,.7,0-1,.2-1.5,0-2.3.3.2,0,.3,0,.3.1-.2,0-.3,0-.5,0,.1,0,0,0,0-.2-.2,0-.7.2-.5.2,0,0,.3,0,.4,0-1.1.2-1.9.5-2.9.5.5,0,.5-.2.9-.2,0,0-.3-.2-.4,0,.2,0-.6,0-.4.1-.4,0-.3,0-.1-.2-.8.2-1.2.1-1.8.4.4,0,.2.2.6,0,.1-.2-.3,0-.3,0,.1,0,0,0,.2-.1.3,0,.4,0,.8,0-.3.2,0,0,.1.3-.3,0-.4,0-.5.2-.2,0-.6,0-.7.2.3,0,.3,0,.2,0,.6-.2,1.2-.2,1.6-.4.3.1,1.1,0,1.4-.2,0,.2.3,0,.4.1-.4,0-.3,0-.6,0,0,.2.5,0,.6.1.3,0,.2-.2.5-.2.2,0,.5,0,.7-.1,0,0-.1.1,0,.2h.2c0,0,.2,0,.2-.1,0,0-.1,0-.1,0,.2,0,.4-.2.5,0-.4.1,0,.2-.4.3-.7.2-1.4,0-2.5.4.4,0,0,0,0,.1.4,0,1.1,0,1.3-.1-.1,0-.1,0,0-.1.6.1,1.7-.3,2.2,0,0,0-.2-.1,0-.2,1.8-.2,5.5-.8,7.7-1.1-.1,0,.8,0,1-.1,0,0,0-.1.2-.2.2,0,.4,0,.5,0,0,0,.2-.2.5-.2v.2c.7-.2,1-.2,1.6-.1.1-.1-.4,0-.1-.2.3,0,.6,0,.7-.2,0,0,.2,0,.2,0-.2,0-.3,0-.3.1.4,0,.9-.2,1.3-.2,0-.2-.6,0-.6-.1.2,0,.4,0,.6,0,.1,0,.1.1.2.2.4-.1.7-.2,1.1-.3,0,0,0,0,.1.1.5-.2,1-.2,1.4-.3,0,.2.2,0,0,0-.4,0-.7,0-.9,0,0,0,.5,0,.4-.2-3.7.5-6.7,1-10.4,1.6,0,0,.2,0,0,.1-.7.1-1.4,0-2,.2,0,0,0,0,0,0,0,0,0,0,0,0,0,0,0,0-.2,0-.8,0-2.2.5-3,.4,0,.2-.5.1-.6,0,.1,0,0-.2.3-.3,0,.1.7-.2.3,0,.3,0,1.1-.1.6-.2.3,0,.4.1.5,0-.4.1.3-.3.5-.2-.1,0-.4,0-.4.2.5,0,1.7-.2,2.1-.4.5,0,.8-.1,1.3-.2.5,0,1.7-.1,1.5-.5-.3,0-.4.2-.9.2,0-.1-.2,0-.1-.2.1,0,.2,0,.3,0,.2,0,.2.1.5,0-.2-.2.8-.4.9-.3-.1,0-.2,0-.2.1.5,0,1.3-.2,1.6-.3-.9,0-1.9,0-.9-.4-.1.1.1.4.4.3-.2,0,.4,0,.5-.2.3,0,.2.1.4.1.7-.3,1.3,0,1.8-.3,0,0,.3,0,.1.1.3,0,.6-.3.8-.2-.2,0-.3,0-.3.1.2,0,.1,0,.1.2.6-.1.6-.4.9-.5-.3,0-.2.1-.4.2.1-.1-.3-.1,0-.2.2,0,.7-.1.8,0,.1.4-.9.8-1.9.7.2,0,.4,0,.5-.2-.4,0-.6,0-.6,0,0,0-.1,0-.2.1,0,0,.1,0,0-.1-.3,0-.3.1-.5.1.2.2.5,0,.1.3,1.7-.2,2.3-.2,3.8-.4.3-.3,1.2-.2,1.4-.4-.2,0-.3,0-.3,0,.3,0,.2-.1.4-.1,0,.1.7,0,.9-.1-.2,0-.3,0-.4-.1.3-.1.5-.1.8-.2,0,0-.1,0,0,.1.3,0,.6-.1.8-.2,0-.1-.5,0-.7,0,.2,0,.4-.1.7-.2.1,0,0,.1.3,0,0,0,0-.1,0-.1.2,0,.2,0,.1.2.4-.1.5.2.8,0-.3,0-.6,0-.5-.1.3,0,1.1-.1,1.2-.3.3,0,.6,0,.8,0,0-.1-.5,0-.2-.2.3,0,.5.1,1.1,0,0-.2-.1,0-.4,0,0-.1,0,0-.3-.1.4,0,.9,0,1.3,0,0-.2.3-.1.6-.1,0,0,0,0,0-.1-.1,0-.8.1-.9,0,.1,0,0,0,.2-.1.7,0,2.1,0,1.9-.4-.4,0-.2.2-.4.2-.1-.2-.3,0-.6,0-.6.2-1.7.3-2.5.4.2,0,.1-.2.3-.2.9,0,2-.2,3.1-.5,0,0,.4,0,.5,0,.2.2,1,0,.9.2.5-.2,1.1-.1,1.2-.4-.3,0-.5,0-.7,0,.3-.2,1,0,1-.2.1,0,.4,0,.6,0,0,0-.1,0,0,.1.3,0,1.3-.2,1,.1,0-.1-.7,0-.8,0,.2,0,.7,0,.3,0,.3,0,.5,0,.3,0,.3,0,.7-.2.8-.1,0,.1-.5.1-.5.2.6,0,1.1-.1,1.4,0,.4,0,.4-.1.8-.2,0,0,.2,0,.2,0-.5.2-1,.1-1.4.3-.4,0-.5-.5-.8,0,0-.1-.5,0-.2-.2-.8.1-.7.1-1.4.3.2.2,1.2-.1,1.2.2-.6,0-.1.3,0,0-.2,0,1-.2.5,0,.5-.3.7-.1,1.2-.4.2,0,.2,0,.1.2.4,0,0-.2.3-.2.5.1,1.7-.1,2.2-.1-.1,0,0,0-.2.1-.2,0-.2,0-.5,0,0,0,0,0,0,0-.4.1-.7.2-1,.1,0,0,0,.2-.2.2-.4-.1-1.4.3-1.9.2-.2,0-.1.2-.5.2,0,0,0,0-.2,0-1.2.2-3.7.7-5.3.9,0,0,0,0,0,0-1.7.3-2.3.3-3.8.5,0,0-.1.2-.4.3,0-.1.2-.1.2-.2-.1,0-1.6.2-1.3.3.3,0,.9-.2,1,0-.2,0-.3,0-.5,0,.4.2.9-.1,1.4,0,.2,0,0-.1.3-.2.4,0,1.2,0,1.5,0,.4-.2.9-.2,1.2-.3.2.1.8-.1,1.1,0,0-.1-.3,0-.3-.1.4,0,0-.2.3-.2.3,0,.6,0,.9-.1,0,0,.3,0,.2.1.6-.1.8,0,1.2-.2.3,0-.2.2.1.2.2,0,.4-.2.7-.2,0-.1-.5,0-.1-.2,0,0,0,0,.3.1.2,0-.1,0,0-.1.2,0,.3,0,.4,0-.1,0-.2,0-.3.1.4,0,.3-.1.5-.2,2.2-.2,4.3-.6,6-1-.1,0-.3,0-.3,0,.6,0,.7,0,1.5-.2.2,0-.1,0,0-.1,0,.3,2.7-.4,2.2,0,.3,0,.5,0,.3,0,.3,0,.6,0,.5,0-.4.1-.8.1-1.2.1.5.1,1.3,0,1.8-.1.6,0,.9-.2,1.4-.3.5,0,1.1,0,1.6-.3,0,0,0,.1.1.1,0-.1,0-.2.2-.2.2,0,.2,0,.2,0,.4,0,.5-.2.8-.3,0,0,0,0,0,.1,1.4,0,2.4-.7,3.1-.7,0,0-.3,0-.3.1.2,0,.4,0,.6,0,0-.1-.2,0-.2-.2.4,0,.5,0,.3.2.2,0,.4,0,.6,0,0,0,.1-.1.2-.2-.2,0-.5,0-.6,0,.5,0,.6-.2,1-.2,0-.3,1.1-.2,1.1-.5-.8.2-.9,0-1.8.3,0-.2-.5-.1-.5,0,.2,0,.5-.1.4,0-.3,0-.5.1-1,.2.1-.2-.4,0-.5-.1.2-.1.7-.4.5-.5-.3,0-.5.2-.8.2-.2,0,0,.2-.2.3,0,0-.2,0-.2,0l.4-.4c-.4.1-.5,0-.7,0-.1,0-.3.2-.4.3.1,0,.2,0,.3.1-.6.2-.8,0-1.2,0,.6-.1,0-.3,0-.4.2,0,.1,0,.4,0-.1-.2.1-.2.3-.3-.6.1-.3,0-.6,0,0,0-.2,0-.3,0,0,.1.4,0,.2.2-.3,0-1,.3-.5.3,0-.1.2-.1.4-.2-.3.2.1,0,.1.2-.1,0-.1,0-.2,0-.3,0-1.4.2-.6-.2-.2,0-.4,0-.4,0h.4c0,0,0-.3,0-.3-.2,0-.2,0-.3.1-.2-.1-.3-.2-.5-.2.7-.1.2,0,0,0-.1-.1.4-.2.2-.2-.1,0-.7,0-.9.1.5,0,.2,0,.1.1.2,0,.5-.1.4,0-1.1.2-1.8-.1-2.3.3-.3,0,0,0-.2,0-.3.1-.1.2,0,.3-.2,0-.3,0-.4.1.4,0,.2,0,.1,0,.2,0,.5,0,.6,0-.5,0-1.2.2-1.5.2,0,0,0,0,0,.1-.1-.1-.4,0-.6,0-.3-.1.3-.4.8-.3,0,0,0-.2.2-.2,0,0,0,0,.1,0,0,0-.3,0-.2.2.2,0,.2,0,.4,0-.4-.1.2-.2,0-.3-.3,0-.5.1-.8,0,0,0,0,0,0,0-.2-.2.5-.2.5-.3-.5.2-.8.2-1.1.4.2,0,.4,0,.4,0-.1,0,0,0-.2.1-.4,0-.8,0-1,0,0,.1-.6.1-.8.2.2.2-.6.2-.4.3,0,0,.3,0,.4,0h-.7c0,0-.2,0-.2-.2-.6,0-.9.1-1.4.3.1,0,.2,0,.3,0-.2,0-.1.1-.4.1,0-.2,0-.3.1-.5-.3,0-.9.2-1,0,.4,0,1-.1,1.3,0,0,0-.3,0-.2.2,0,.1.6,0,.6,0l-.3-.2c.6,0,.7,0,1.2-.1,0,0-.3.2,0,.2,0-.1.3,0,.3,0,.9-.2,1.5-.3,2.3-.4.2-.3.7-.3,1.2-.5-.2,0-.3,0-.4,0,.1,0,.1,0,.2,0,.2,0,.7.1.9,0-.1,0,0,0,0,0-.2,0-1.2,0-.7-.1-.2,0-.7,0-.9.1,0-.1.2-.2,0-.2-.5,0,0,.2-.5.3-.4,0-.7,0-.9,0,.1-.1.3,0,.4-.1-.2,0-.5,0-.6-.2,0,0,.1,0,0-.1.3,0,.5,0,.5-.2-.2,0-.2,0-.1,0-.2,0-.7.2-.7,0h0c.2-.2.7-.2.8-.3-.2,0-.9,0-.5,0-.4.1-.7,0-.9.2.5,0,.2,0,.4.2-.4,0-.3,0-.4.3.6,0,1,0,1.2.1-.1.2-.9.1-1.1.3-.2-.1.3-.1.3-.3-.5.1-.3,0-.2-.2-.4,0-.6.4-1.1.3.2.2-.6.4-.5.5-.5,0-.9.2-1.1,0,.3-.1.6,0,.7-.1-.6,0-.2-.3-.5-.4-.1.2,0,.4-.9.6,0,0-.4-.2-.5,0,0,0,0,.2,0,.2-.3,0-.9,0-1.3,0,.1-.1.5-.2.8-.2-.1-.1-.7,0-1,.1,0,0-.1,0-.2,0,.2-.1.5-.2.9-.4,0,.2.8,0,1.3-.1,0-.1.3-.3.3-.3.2,0,.3.1.1.2.3,0,.5-.1.2,0,.4,0,.5,0,.8-.1-.1-.1,0-.2-.1-.3-.7.3-1.1,0-1.9.2-.1.2-.8.4-1.1.4.2,0,.3,0,.3-.1-.4,0-.4,0-.8,0,0,.2.4,0,.5.2-.2,0-.2,0-.4,0-.1,0,0-.1-.3,0-.3,0-.3.2-.6.3.2,0,.2,0,.5,0,0,.1.4.1.2.3-.1-.2-.8,0-1,0,0,0,.3,0,.3-.2-.2,0-.4,0-.5.1.2-.1,0-.1-.2-.1-.1.1.3.1,0,.2-.4,0-.5,0-.8,0-.1.2.3,0,.4.1-.2,0-.6.1-.9.2-.2-.1,0-.2,0-.3,0,0-.5,0-.5.2.3,0,.3,0,.4,0-.3.1-.8.1-.9,0,.7-.1.2-.3.6-.5-.3,0-.8,0-.9.1.4.2,0,.5,0,.6-.9.2-.7-.1-1.2-.2.2-.2.7-.2.5,0,.2,0,.4,0,.5,0-.2,0-.2,0-.2-.2-.7,0-1.1.2-1.3,0,.1,0,.2,0,.3,0-.3,0-1.2,0-1.2.1.1,0,.1,0,.1.1.4,0,.5,0,.6,0-.3,0-.6-.1-.9,0,.2-.1,0-.3-.2-.3,0,0,.6-.3.7-.2-.3,0-.1.1,0,.1.5,0,0-.1.3-.2.6,0,.7,0,1.2-.2-.3,0-.7,0-.9,0,.6,0,.9-.1,1.4-.3,0,0-.2,0,0-.1.2,0,.3,0,.6,0,0,0,0-.1,0-.2-.7.1-.8,0-1.3.1,0,.2.2,0,.3.2-.5.1-.6,0-.9.2.2-.2-.4,0-.1-.3-.1,0-.2,0-.3,0,.2-.1-.1-.2-.4-.1-.2,0-.1.2-.5.2v-.2c-.3,0-.3,0-.6,0,0,0,0,.1,0,.1,0,0-.4,0-.6,0,0,0,.1-.1,0-.2-.5,0,0-.2-.5,0-.7.1-2.3.6-2.8.4.3,0,.5,0,.9,0,0-.1-.3,0-.3-.1.3,0,.3,0,.6,0,0,0,0,0,.2,0,.8-.3,1.9-.2,2.6-.6-.3,0-.7.1-.8,0,.1,0,.2,0,.3-.1-.1,0-.2,0-.4,0-.3,0,.1.2,0,.3-.3,0-.7.1-.8,0,0,0,.4,0,.3-.2-.6.1-.7.1-1,0-.3,0,.2,0,.1.2-.2,0-.4.1-.7.2,0-.2-.5-.1-.9-.2.3,0,.5,0,.6-.2l1.1-.2c.2,0,.3.1.5.1h0c0,0,.1-.1,0-.1,0,0-.2,0-.2,0h0c0,0,.2,0,.2,0l14.1-2.2c.5,0,1.5-.1,1.6-.2l1.4-.2c.1,0,.3,0,.4,0,0,0,0,0,0,0l2.7-.4c0,0,.2,0,.2,0,0,0-.1,0,0,0,.1,0,.2,0,.2-.1l2.9-.5c0,0-.3.2-.3.2.2,0,.6,0,.6-.1,0,0,.2-.1.3-.2h.4c0,0,0,0,0,.1.6-.1.8-.1,1.2,0-.1,0,0-.3.4-.4,0,.1,0,.2,0,.3.3,0,.4,0,.6-.2.1,0,.7,0,.7,0,0,0-.1.1-.3.2-.2,0-.2,0-.5,0,0,.2.6,0,.9,0,0,0,0-.1,0-.2-.2,0-.2-.2-.2-.3h.6c0,0,0,0,0,0,0,0,.1,0,.2.1.6-.2,1.6-.2,1.9-.5,0,0-.2,0-.2,0l2.3-.4c.2,0,.2,0,0,.2.2,0,.5-.1.5,0,0,0,0,.1-.2.2,0-.1-.4.1-.6,0,0,0,0,.2.1.2,0,0,0-.1.2-.2.1.2,1,0,.9.2.3,0,.5-.1.7,0,0,0-.2,0-.2,0,0,0,.2,0,.2,0-.4,0-.9.3-1.2.4.1.1.3-.1.6,0,0,0,.1,0,.1.1-.6,0-.8.4-1.3.2,0,0,0,.2-.2.2-.1,0,0-.1-.3,0,0,.2-.4.2-.7.2,0-.2-1.2,0-.5,0-.1-.1.4-.1.4,0-.8.1.7,0,0,.2,1.1-.1,1.4,0,2.3-.2.1,0,0,.1,0,.2-.2-.2-.5.1-.7,0,0,.1.2.1.4.1,0-.2.9,0,1-.3.3.1-.1.3-.7.3-.2.1,0,0,0,.2-1.7.5-3.9.6-5.9,1.1,0,.1-.1.2-.4.3.2-.2-.5,0-.7.1.2-.1-.2,0-.1-.2-.7.1-1.2,0-1.4.4.4-.1.5-.2.3,0,.4,0,.5,0,.8,0,0-.1-.4,0-.5-.1h.7c.1,0,.1,0,.2,0,.6-.1.9,0,1.3-.2,1.2.1,1.9-.5,3.2-.4,0-.1.2-.2.3-.3.2,0,.4.1.6.2-.2,0-.4,0-.3.1.5,0,0,.3.6.3.2,0-.4-.3.1-.4,0,.1.4,0,.3.1h-.3c.2.3.8,0,1.2,0-.6.1-.3.1-.4.3-.1,0-.6-.2-.7,0,.1,0,.1,0,.1.1h-.5c.4-.1-.6.1-.2,0-.3,0-.2.1-.4.1,0-.2-.4,0-.4-.1.1,0,.3,0,.3,0-.4,0-.6,0-.8.2.5,0,.7.1,1.3,0-.1,0-.5,0-.5.1.3,0,.6.1,1,.2-.7,0-1.7,0-1.3-.3-.3,0-.8.2-.5,0-.3,0,0,.1-.4.1-.2,0,0,0,0-.2h-.7c.2.3-.5.2-.5.2,0,0,0,.1,0,.1-.4.2-1.3,0-1.3.3-.2,0-1,0-1.3,0,.4-.1.5,0,.3.2.4,0,.6-.2.9-.1-.6,0-1.4.6-1.6.2.2,0,.6,0,.6-.1-.3,0-.9,0-.9.2,0-.1-.3,0-.4-.1.1.1.1,0,0,.2.2,0,.2.1,0,.3.2,0,.2,0,.4-.1.2.1-.1,0,0,.3.4,0,.6-.1.8-.1-.1.1-.4.2,0,.2,0-.3.8-.3,1.1-.3,0,0,0,0,0,0,.4-.2.5,0,.8-.1,0-.2-.4,0-.4-.1,0-.1-.2-.3.2-.5.4,0-.3.2,0,.3,0,0,.1-.1.3-.1,0,0,.2,0,.2.2-.4.1-.6,0-.7,0,.1,0,.2,0,.2,0,.2,0,.3-.2.4,0-.3,0-.2.2.1.2-.1-.2.3-.1,0-.3.3,0,.5,0,.5,0-.4,0-.2.2-.4.2.3,0,.6-.1.8,0-.3,0-.2.1-.4.1-.2,0-.3,0-.5,0h0c0,0-.1.1,0,.1.3,0,.6,0,.8,0-.2,0-.2,0-.3.1,0-.2-.8,0-.7.1.5,0,.8,0,1.2-.2.1,0,.4,0,.3,0-.3,0-1,0-1.2.3.2,0,.4,0,.2,0-.2,0-.3,0-.7,0,0,.2.4.2.5,0,0,.2.1.2.3.2-.1-.3.3,0,.5-.2-.1,0-.4,0-.3,0,.6,0,.5-.2,1.2-.2h-.4c0,0,0,.2,0,.2.3,0,.3,0,.5,0,0,0,0-.1,0-.1.1,0,.4,0,.5,0,0,0,.3-.2.5-.2-.1.2.3,0,.3,0-.3,0-.5,0-.7,0,0,0-.1.1,0,.2.4-.1.7-.2,1-.1.3-.2.7-.2,1-.2-.1-.1,0-.1-.1-.2-.2,0-.2,0-.4.1,0,0,.2,0,.2-.2-.2,0-.7,0-.8.2.1,0,.4,0,.3,0-.2,0-.5,0-.6-.1.4,0,.4-.2.7-.2,0,0,0,0,.1,0,.2-.2.9-.2.8-.4.3,0,.5,0,.8,0,0,0,.1-.1.2-.2-.3,0-.5.2-.5,0-.3,0-.4.2-.9.2.3-.2-.3,0-.3,0,0,0,.1,0,.2-.1,0,.1.2,0,.4,0,0-.2-.4,0-.3-.2.7-.1.9,0,1.3-.2,0,0,0,0,.2,0,0,0-.1.1,0,.2.2,0,.4-.1.4,0-.4.2.2,0,.2.1-.1,0-.2.1-.3.2.2-.1.7-.3,1-.2,0-.3,1-.2,1.2-.5-.4,0-.2,0-.2,0-.5.1-.9.2-1.3.1,0,0-.2,0-.2.2,0,0,.2,0,.2,0,0,0-.1,0,0,0-.4,0-.3,0-.1-.2-.2,0-.5.1-.5,0,.1,0,0,0,.2-.1,1.1-.3-.5,0-.7,0,.6-.1,1.1-.5,1.7-.4,0-.2,1.1-.3,1.5-.3.1-.1.3-.2,0-.2.5,0,.7,0,1-.2.3,0,1.1-.1,1.3,0,.4-.2.6-.1,1.2-.3-.6-.3-2.1.4-2.8.1,0,0,0-.1,0-.1,0,0,.1,0,.2,0-.1-.1.3,0,.2-.2-.2,0-.6,0-.8,0,.5-.1.6-.1.9-.2-.5,0-.2-.2-.5-.3-.3.1-.3,0-.7.1.1.1-.1.2-.3.2-.5-.3-1.6.2-1.9,0,.4,0,.4-.1.2-.2.2-.2,1.2-.4,1.1-.3,0,0-.4,0-.3-.1.4,0,0,0,.2-.1.4,0,.5,0,.2,0,.4,0,.7-.1,1.2-.2.3,0,1.2,0,1.2-.3-.7.1.1-.2-.2-.2-.2.2-.5,0-.4-.1-.4,0-.4.2-.7.4.6,0,.6,0,.9,0-.4.3-1,.1-1.3.1.3.3-1.1.1-1.2.3,0-.1.3-.2.3-.3,0,0-.4,0-.4,0,.2,0,0,0-.1,0,.3,0,.5-.1.7,0,.2-.1,0,0-.1-.2.5,0,1-.3,1.2-.6.1,0,.3,0,.3,0-.1,0-.3,0-.3,0,.2,0,.3,0,.5,0,.3-.1.2-.2.7-.2-.1-.2-1,0-1.3,0,.3,0,.5,0,.7-.2-.6,0-1.3.2-1.5,0,.2,0,.4,0,.3-.1-.1,0-.8,0-.4-.2-.4,0-.7.2-.9,0,.2,0,.3,0,.4-.1-.7,0,.4,0-.4-.1.2,0,.2,0,.3,0h.4c0,0,0,0,0,0,0,0,0,0,0,0h.2s0,0,0,0c.1,0,.3,0,.4-.1l1.7-.3s0,0,0,0h-.2c0,.2.2,0,.3,0h.5c.3,0,.6-.1.8-.2l28-4.4s0,0,0,0c.2,0,.5,0,.6,0,0,0,0,0-.1,0h.4c0,0,.8-.1.6,0-.1,0-.2,0-.3,0h.8c0,0,0,0,0,0,.1,0,.3,0,.3,0-.2,0-.2,0-.1,0l2.1-.3c-.2,0-.3.1-.4.2.4,0,.9-.2,1.2,0,0,0-.3.1-.2.2.1,0,.4,0,.7,0,0,0,0-.1,0-.2-.1,0-.4.1-.5,0,0,0,.1-.1.2-.2,0,0-.3,0-.5,0l2.1-.3c-.1,0-.4.1-.2.2.2,0,.6,0,.6-.1-.3,0,0,0-.2-.1h.6s-.3.2,0,.1c-.2.1-.6.3-.9.4.1,0,.7-.2.6,0-.1,0-.2,0-.4,0-.1.2.3,0,.2.2-.3,0-.2,0-.4.1,0,0,0-.1,0-.2-.3.2-1.1.2-.9.3,0,0,.3,0,.4-.1v.2c.2,0,.2,0,.3-.1.2,0,.4,0,.5,0,0,0-.1,0-.2.1-.7,0-1.4.2-1.5-.1-.3.1-.4,0-.8.1-.3,0,1-.1,1,.1-.1,0-.1,0-.2,0-.2-.2-1.2.2-1.5.2,0,0,.2,0,.4-.1-.1-.1,0,0,0-.2-.3,0-.4,0-.2,0-.4,0-.4.2-.9.2v-.2c-.4.3-1,.3-1.5.4,0,0,0-.2-.1-.2-.1,0,0,.2-.3.3-.5,0-1.6,0-2.1.3,0,0,.6,0,.7-.1,0,0,.1,0,.2,0-.5,0-.6.2-.6.3-.3,0-.4,0-.4-.1-.4,0-.9.1-1,.2,1-.2,1.2,0,1.2.4-.2,0-.7-.1-.4-.3-.4,0-.5,0-.8,0,.2-.3-.7.1-.5-.2-.3,0-.1.2-.4.2,0,0-.1,0-.2,0,.2-.1,0,0,0-.2.3,0,.4-.2.7-.3-.2,0-.6,0-.6.1.2,0,0,.1,0,.1-.1-.1-.4,0-.6,0-.1,0-.1,0,0-.2-.4,0-.7,0-1.1,0,0,.2-.6.3-1,.4-.3,0-.3-.1-.4-.1-.2,0-.6,0-1.1.1,0,.1.2.3,0,.4-.2,0-.9,0-1.4.2,0,.1.1.2.3.2,0,0,.5-.1.4,0,0,0-.3,0-.2.2.6-.2.8-.3.9-.4.2.2.5,0,.4,0,.6,0-.9.5-.7.6.4-.1.7,0,.6.1.1,0,.3,0,.4,0-.1.2.3,0,.3.1-.5.2-.9,0-1,.2-.3,0-.3-.2-.8,0,0,0,.1,0,0-.1-.7,0-1.2.2-1.6.3.1,0,.1,0,.1.1.3,0,.6-.2.8-.1,0,.1-.2.2-.3.3-1,.1-1.1-.5-1.9-.3,0,.2.4,0,.4.1-.2.1-.2.2.1.2-.2.2-.6.3-1.1.3.3,0,.5-.2.6-.3-.2,0-.4,0-.4,0,.3,0,0,.2-.3.2,0-.2-.7,0-1-.2-.2,0,.2.1-.3.2-.1.1,0,.1-.3.3-.3-.2-.5,0-.9,0,0,.2-.2.3-.4.5-.5,0-.2-.3-.6-.3,0,.2-.2.2-.5.2,0,.1.3.1.5.3.4,0,.4-.2.7,0,0-.2.5-.1.4-.3.2,0,.2,0,.4-.1-.1.1,0,.2.1.2.4,0,.4,0,.8-.1,0,.1,0,.2.1.2.3,0,.5-.2.8-.3-.1,0-.3,0-.4,0,.2,0,.5-.2.6,0,0,0,0,0,0,.1,1-.1,1.3,0,2.4-.4-.2.2.1,0,.1.1.9,0,1.2-.3,1.8-.4-.2,0,0,.2.1.2,0-.1.6-.2.9-.3,0-.2-.4,0-.3-.2,0-.1.5-.2.7-.3-.3.2.4,0,.4.2-.1,0-.2,0-.3,0,0,.2.3.1.4.2.3,0,.4-.1.6,0-.2,0-.4,0-.4.1.2,0,.8-.1,1,0,0-.2-.4,0-.4-.2.2,0,.6-.1.3-.2,0,0-.9.2-1,0,0-.1,0-.2,0-.3-.4,0-1.2,0-1.7,0,.3,0,.1-.2.3-.3.2,0,.8,0,.9.2,0-.1.3-.2.4-.3.2.2,0,.2,0,.3,0-.1.5-.2.6,0-.2.1-.2,0-.5,0,.3.2.8-.2,1-.2-.1,0-.4,0-.3,0,.2,0,.2-.2.4-.3.1.3,1.1-.2,1.2,0-.3,0-.4,0-.7.1,0,.1,0,.3.2.3,0,.1-.7,0-.6.2.7-.2,1.1,0,1.6-.3-.1,0-.4,0-.4,0,.1-.1,0-.1,0-.2.4,0,.9,0,1,.1.2-.5-.2-.1-.4-.4-.4,0-.5,0-.6,0,.1,0,0,0,.2-.1.9-.2,1.9-.2,1.5.4.6.1,1-.2,1.6,0,0,0,0-.1,0-.1.1,0,.4,0,.4.1-.1,0-.4,0-.4.1.2,0,.5,0,.7,0-.1-.2.2,0,.2-.1-.1,0-.1,0-.2,0,.2,0,.2,0,.4-.1,0,0,.1,0,.1.2,0,0-.2,0-.2,0,.2,0,.3,0,.4-.1,0,0-.5.2,0,.2.2-.4,1.9-.2,1.8-.5,0,.1.3.1.3.2-.5.2-.9,0-1.5.2-.3,0,0,.3-.5.3.3-.2-.7,0-.6-.2-.5.2-.6,0-1,0,.1.1,0,0,0,.2.2,0,.3,0,.4-.1.2.1.4.2.7.3,0,0,.2,0,.2,0,0,0-.3-.1-.1-.2.1,0,.5.2.4.3.5-.1.4-.1.6,0,.5-.1.4,0,.6,0,0-.1.8-.2.8-.2-.5.1.2.1,0,.3.3-.1.3-.1.6,0,.2-.3.4-.2.8-.3,0,0,0,0,.2,0,0,0,.2,0,.3-.1.2,0,.3.1.6,0,.2,0,.4-.2.7-.2-.1,0,0,.2.1.2,0-.1.4-.1.4-.2-.1.2.4,0,.4,0-.2,0-.3,0-.3.2,0,0,.1,0,.1,0,.9-.2,1.5-.3,2.1-.3.5-.3,1.2-.2,1.8-.2,0-.2.8-.2.3,0,.1,0,.2,0,.4,0,0,0-.2,0,0-.1.2,0,.3,0,.5,0,0,0-.2,0,0-.1.4,0,.5,0,.8,0,0,0,0-.1.2-.2-.3.3.3,0,.4,0-.1.3-.9,0-1.2.2-.9.4-1.6.2-2.7.5-.1,0-.9.4-1.2.2-.3.1-.9.2-1.3.4.2-.1,0-.1-.1-.2-.3,0-.5.2-.8.1.4,0,.3-.1.2-.2.8-.1,0,0,0-.2-.4.1-.8,0-1.2.2.6,0-.5.2,0,.2,0,0,.2-.1.4-.1-.2.1.1.1,0,.2-.2,0-.2,0-.5,0,0,0,0,0-.2,0-.6.2-1.3.2-1.9.3.7,0-.6.3-.7,0,.3,0,.7,0,.6-.2-.4.1-.5,0-.9.1,0,0,.3,0,0,.2-.2-.2-.8.4-.9,0,.3,0,.5,0,.6-.1-1.5.1-2.7.5-4.3.6,0-.2-.3-.2-.5,0,0,0,.1,0,.2,0-.1,0-.2.2-.5.2,0-.2-.8,0-.9.1.2,0,.1,0,.1.2h-.4c.3,0-.3,0,0-.1,0,0,.1,0,0,0-.3.1-.6.1-1,.2,0,0,0,.2-.3.2-.3,0-.5,0-.6,0,0-.1.6,0,.6-.2-.1,0-.2-.1-.2-.3-.7.1-1.3.2-2,.2.3-.2,1.7-.1,1.6-.5.6,0,1.9,0,2.5-.4-1,.1-1.5.2-2.4.4,0,0,0-.1-.2-.1-.3,0-.5.2-.8.2.1,0,.2,0,.2-.1-.6.1-1.7.2-1.8.5-.1,0-.4,0-.3,0,0,0,.4,0,.4,0-1.3,0-2.1.4-3.2.6.2-.2-.2,0-.3,0h0c-.4,0-.5,0-.6.1.7,0,1.5,0,1.9-.1,0,.1-.2.2,0,.3.3,0,.3-.2.5-.2.1,0,.3,0,.4.1.1.1-.1.2-.3.2-.2,0-.3-.2-.6,0,.1.3.8,0,1,0,0-.1-.1-.3.3-.3,0,.1-.3.1-.2.2.5,0,.2-.2.6-.3.2,0,.2,0,.1.2.5,0,.4,0,.8,0,.2-.1,0,0-.1-.2.2,0,.4,0,.4-.1-.1,0-.2,0-.3,0,.3,0,1.1,0,1.6-.2,0,0,.1,0,.2,0-.3.1-.1.2,0,.2h-.5s.2-.1,0,0c0,0-.2,0-.3,0,0,.1.2,0,.2.1-.6,0-.8.4-1.4.3.1,0,.2,0,.3-.1-.3.1-.6,0-.8.2,0,0,.4,0,.4,0-.1,0,0,0-.2.1-.4,0-.5,0-.9,0,0,0,0,.1,0,.1,0-.1-.6.2-.6,0,0,0,.3-.2,0-.2,0,.2-.4.2-.6.3-.2,0,0-.2-.2-.2-.3.1.2.1,0,.2-.2,0-.5,0-.5-.2-2.5.5-3.7.5-6.2.9,0,0,0,.1,0,.1-.4,0-.5,0-.9,0-.1.4-1.5.2-1.6.6.6-.1.4-.2,1.1-.3.1,0-.3.2,0,.2,1.2-.2,2.3-.3,3.6-.3.1-.1-.3-.1,0-.2,0,0,.8,0,.9-.1-.2,0,0-.2,0-.2.8,0,1.4-.2,2.8-.5-.2.2.2,0,.3.1,0-.2.4,0,.5-.2h0c.9,0,1.8,0,2.2-.4.2,0-.1.1.1.1,0,0,.3-.1.5-.2,0,0-.1,0,0,.1.4-.1,1-.2,1.3-.1,0-.3.5,0,.9-.2,0,0,0-.1,0-.1.2,0,.5,0,1-.1,0,0,.2.2,0,.2-.2,0-.8.3-1.2.1,0,0,.1.2.3.2,0,0,0,0,0,0,0,0,.3,0,.2.1-.2,0-.3,0-.3.1.5,0,.6-.1,1.1-.1,0-.2-.3,0-.3,0,0,0,.2-.1.5-.2,0,0,0,.2.2.2.1,0,0-.2.2-.2.2,0,.3,0,.4,0,0,0,.2,0,.1.2.2,0,.4,0,.5-.2-.2,0-.2-.1-.2-.2.3,0,.5.1.4.3.5,0,.6-.2.7-.3h0c1.2,0,2.3-.2,3.6-.5-.3-.2-1.8.4-1.9-.2-.2,0-.4,0-.4,0,.2-.2.8,0,.9-.2-.2,0,0,0,0,0,.1.1,0,.2-.2.2.3,0,.3,0,.5,0,0-.2.7,0,.8-.2-.2.2.4.1.4,0-.5,0-.6-.2-1.2,0,.3,0,.4-.1.8-.2.1,0,0,.1.1.2,0-.2.2,0,.3,0,.2-.2.6,0,.9-.2,0,0,.2,0,.1.2.4,0,.6,0,.8,0,.4,0,.3-.2.7-.3.1.2.4-.1.7-.1,0,0-.1.1,0,.1,0,0,.4,0,.5-.2-.1,0,0,.1.1.1.2-.1.7-.2,1-.3,0,0-.1.1-.2.2.2,0,.3-.2.4,0-.1,0,0,0-.2.1-1.3.1-3.4.6-4.7.7-.1.2.4.2.4.1-.1,0-.1,0,0,0,.3,0,.5,0,.7,0,0-.2,1.4-.2.8-.3.5,0,1-.2,1.3-.1-.2,0-.4,0-.3.1.7,0,1.2-.2,1.3-.3.2,0,.6-.1.8,0-.1.2-.5,0-.7.2.2.1,0,.2.3.3h.5c0-.2,0-.3.2-.2,0-.2-.2-.1-.3-.2.2,0,.8,0,.5-.2.3,0,.4-.1.6-.1-.3.2.3.1.3.2.6-.3.7,0,1.2-.3,0,0-.3.2,0,.2,0-.1.6,0,.7,0-.4.2-.7,0-1.2.2.8.4,2.1-.4,3.5-.3,0,0,.4-.2.5-.2,0,0-.3,0-.3.2.2,0,.1.1.3,0,0-.2.2,0,.4-.1,0,0,.1,0,.2,0,0,0,0-.1,0-.2.2,0-.1.2.2.2,0,0,0-.2.3-.2,0,0-.1,0,0,.1.9-.1,1-.1,1.7-.2-.2.1,0,0,0,.2.5-.1,0-.2.6-.3,0,.1,0,.2.2.1.5-.2,1.7-.4,2.4-.3,0-.1.4,0,.7-.2-.2.2.5,0,.5,0,.6-.2,1.6-.1,2.5-.2-.2,0-.4,0-.4.1.2,0,.2,0,.2.1,0,0-.1,0,0,0,.2-.3.7-.2,1.2-.2.2.2-.5.2-.2.3.4,0,0-.2.4-.2.5.3.8-.4,1.4-.3-.3.2.3,0,.2.2,0,.1-.5.1-.4.3h.6c.5-.5,1.7-.5,2.5-.7-.2.1-.6.2-.6.4.1,0,.2,0,.3,0,0,0,0-.1.2-.2.9.1,2-.7,3-.5-.1,0-.2.1-.3.2,1.3-.3,2.6-.2,3.8-.8.2,0,.3.1.7,0-.1,0-.1.1,0,.2,1.2,0,1.7-.2,2.8-.4,0,0,.3-.1.5-.2,1.9-.2,3.6-.6,5.2-1.1.2,0,.3,0,.5,0,.2-.1.5-.2.8-.3.1,0,.3,0,.4,0,0,0,.1,0,.2,0,0,0,.2,0,.2,0,2.1-.2,3.4-.4,5.1-.8,0,0,.2,0,.3,0,.8.1,1.6.3,2.5.4,0,.3,2.1.6,3.3.7.4.2,0,.5.9.7.8,0-.2-.3-.2-.4.6,0,.9,0,1.4,0,.4,0,.8.1,1,.2,1-.1,2.8.3,4,.2.4.3,1.1.5,2.1.7,0-.2.3-.3.5-.4,2.8,0,4.1,1,6.8,1,.7.3,1.8.5,2.9.6,2.8,1.1,7.1,1.8,10.7,1.9.9.7,2.6.6,3.8.9,1.9.5,3.8,1.3,5.9,1.3.2,0,.1-.1.3-.1,1.5.3,3.4.4,5.1.7,1.2.2,2.3.6,3.5.7,1.4,0,2.5,0,3.4-.3,1.1.2,2.4-.3,3.4.2.2,0,.2-.2.6-.1.3,0,.3.1.4.2,0-.2-.1-.2,0-.3-.8,0-1.2,0-1.9,0-.2,0-.3-.1-.6-.1-1.6.1-3.4.2-5.5.1-2-.1-4-.7-5.4-.5-.3,0-.2-.2-.4-.3-.8,0-1.4-.3-2.3-.3-.6,0-1.2.1-1.9,0-1.4-.2-2.3-.6-3.9-.8-.6-.5-2.3-.5-2.3-.9.3-.1,1,.4,1.4.2-.3,0-.6-.2-.7-.3,1.5-.1,2.2-.8,4-.7,1.5.3,2.6.3,3.6.3,4.9,1.1,11.8,2,16.8,2.3,1.2.3,2.2.5,3.7.6,1.6,1,5.8.7,7.3,1.3.8-.4,3.1.2,3.8.6.3-.3,1.5,0,2.1.2,0,0-.6,0,0,.2.3,0,.3,0,.4,0,.2.2.6.3.6.5.5.1.6,0,1.1.1-.2,0-.3.2-.6.2-.8,0-.9-.2-1.2-.4,0,.1.2.2-.2.2-.1-.4-.9,0-1.2-.4.3,0,.5,0,.6,0-.6,0-1.2,0-1.7,0,.2,0,.4,0,.1,0,4.9,1.4,9.3,1.8,14.3,2.4.2.2.8.3,1.2.4,1.4,0,2.5.2,2.9-.3-1.7-.3-3.1-.3-5.8-.8-.5-.2-1-.5-1-.8,2.2.1,4.5.9,6.7,1,.3,0,.4,0,.7,0,1.8.2,2.6.5,3.8.7,2.3.5,4.8.7,7.1,1.2.5,0,1,.4,1.5.3-1.2-.3-2.6-.6-3.5-.7-1.3-.4-3.5-.8-5.1-1.1-3-.9-5.4-.9-9.2-1.7-.1-.3-.6-.3-1.2-.5,0-.3-.4-.5-1.1-.7-.4,0,.2.3-.2.3-.4-.2-.8-.3-.8-.6.4,0,.8.1,1,.2,0-.3-1-.4-.9-.7,2.8.3,5.4.2,8.1.7.3.2.5.5.9.6.3-.2-.7-.5-.8-.7.9,0,2.1.2,2.9,0,.2.1,0,.3.5.3,2.6.5,4.5.5,6.6.7,3.2.3,6,1,9.5,1.3.2,0,0,.3.4.3,2.1.4,5.1.6,6.1,1.6.9,0,1.1.3,1.7.5.3,0,.5,0,.9,0,.3.3,1.3.3,2,.4.8.2,1.4.5,2.2.7,1.4.3,2,.3,2.7.2.8,0,2.1.1,2.6-.2-.2-.1-.5-.2-.7-.4-1,0-2.1.3-3.3.1-.8-.1-1.2-.6-2.1-.5v-.2c-3.1-.3-5-1.3-7.4-2l81.4,12.4c.7.4,1.5.8,2.6,1.1,1.1,0,2,0,2.9-.2l24.8,3.8-22.5-4.3c.3,0,.5-.1.7-.2,1,0,1.4-.3,1.7-.4ZM112,51.9c-.1,0-.3,0-.4,0h.6c0,0-.1,0-.2,0ZM116,53.3c-.5,0-.6.2-.9.1,0-.1,1-.2.8-.3.1-.2.3,0,.1.1ZM112.4,55.4c0-.1.6-.3.6,0-.3,0-.2,0-.6,0ZM113.9,55c0-.1.4-.1.4-.3.9,0,.4-.2,1-.3,0,0-.2.2,0,.2h.2c-.2.2-1.1.2-1.6.4ZM113.6,56.2c-.2,0-.8.2-1.2.2.2-.1.9-.2,1.2-.2ZM111.4,56.5c0-.2.5-.1.8-.2,0,0,0,.1.2.1-.3.2-.4-.1-1,0ZM114,56.3c-.6.2-1.3.2-1.8.4.1-.2.7-.3,1.2-.4.3-.1.3-.2.4-.3.3,0,.5,0,.6,0-.2,0-.4.2-.8.3,0,0,.2,0,.4,0ZM137.8,53.4c0-.1.4-.1.7-.2h0c-.3.2-.6.2-.7.2ZM151.9,50.7c.4,0,.7-.1,1.2-.2,0,0-1,.3-1.2.2ZM153.8,50.6c-.2,0-.2,0-.5,0,0,0,.4-.1.6-.2,0,0,0,.1,0,.2ZM155.8,49.8c0,.1-.4.1-.6.2h0c.3-.1.3-.1.6-.2ZM154.4,50.2c0,0,.1-.1,0-.1.2,0,.5-.1.8-.2-.2.1-.2.3-.8.3ZM155.1,49.7c-.1.3-1,.2-1.4.3,0-.2,1.1-.2,1.4-.3ZM153.7,49.4c.3,0,.4,0,.4.1-.3,0-.4,0-.4-.1ZM153.6,49.1c0,.1-.2.1,0,.2.3,0,.3-.1.6-.2.1.2-.6.1-.5.2-.2-.1-.4,0-.7.1,0,0-.1,0-.2,0,0-.2.6-.2.8-.3ZM153.1,49.6c-.4,0-1.1.3-1.2,0,.3,0,.4,0,.7,0,0,0-.1,0-.2,0,0,0,.7-.1.7,0ZM151.8,49.6c.2-.2.3-.2-.2-.1,0-.1.5,0,.4-.2.4-.1.2.1.6,0v.2c0,0-.6,0-.3,0,0,0-.4,0-.5.1ZM149.9,48.9c.2,0,.1.1.3,0,0,0-.2,0-.2,0,0,.1-.5.1-.4.3h-.4c.1,0,0,0-.2,0,.3-.1.9-.2.9-.4ZM148.8,49.2c0,.2,0,.2.2.3,0,0-.2,0-.3,0,.2-.3-.5,0-.5-.2.3,0,.3,0,.6,0ZM147.5,49.5c.1-.1.3-.2.6-.2,0,.1-.4.1-.2.2-.3,0-.5.2-.5,0,.2,0,.5-.1,0,0ZM147.2,49.3c.3,0-.2.2,0,.3-.1,0-.3-.3,0-.3ZM129.5,49.2c0,0-.3.1-.4.2,0,0-.2,0-.3-.1h.6ZM128.6,49.4c.3,0,.3.3.8.2-.5.2-.8.2-1,.3-.3,0,.2-.1.2-.2,0,0-.4,0-.6,0,.4,0,.3.2-.2.3,0,0,.3,0,.1.2-.3,0-.5,0-.5.1-.3,0-.2-.2-.6-.2,0,0,.2-.1.4-.1,0-.2-.3,0-.7,0,0,0,.1-.2.4-.2,0,.2.2,0,.5,0-.2.3.4,0,.5,0,.3,0-.2,0,0-.2.3-.1.9-.1.8-.3ZM127.9,49.4c.1,0,.2,0,.2.2-.4.1-.6.2-.9.1,0,0,.1-.1.2-.2-.1,0-.2,0-.2,0h.7ZM126.4,49.6h.6s0,0,0,0c-.3,0-.3,0-.6.1,0,0-.1,0-.2,0,.1,0,.2,0,.3-.1,0,0,0,0,0,0ZM120.9,50.5h.2s0,0-.2,0c0,0,0,0,0,0ZM111.2,53c0,0,.5-.1.3,0,0,0,0,0,0,0,.2,0,0,.2-.3.2-.3,0,0-.2-.1-.2ZM117.3,53.1c0-.1.3-.1.5-.2-.1,0-.7.1-.9.2,0,0,.1,0,.3,0,0,0-.4.1-.6.2,0,0-.2,0-.3,0,.5-.2.3-.1.7-.3,0,0-.3,0-.4,0,0-.1,0-.1.2-.2.1,0,.3.1.3,0,.2,0,.2,0,.5,0-.2.1,0,.1,0,.2.5-.1.8,0,1-.2.2,0,.1.1.4,0-.3.2.1,0,.1.2-.6,0-1.1.1-1.8.3ZM119.4,52.9c0-.1.4-.2.7-.3,0,.1-.4.2-.7.3ZM120.1,53c.4,0,.4-.1.6-.2,0-.1-.9.2-.8,0,.3,0,.5,0,.6-.2,0,0-.1,0-.3,0,.1-.1.7-.5,1-.3-.3,0-.3,0-.6.1,0,0,.1,0,.1,0,.2,0,.1.2.3.2.1,0,0-.1.4-.1-.5.2-.6.5-1.3.5ZM122.2,52c-.4.2-.1.1-.9.3,0-.2.4-.2.6-.3-.2.1,0,.1.3,0ZM122.9,52c-.1,0,0,.1,0,0,.4,0-.3.2-.4.1,0-.1,0-.2.3-.2-.1,0,0,.1.1,0ZM123.9,52.2c-.4.2-.9,0-1.4.2,0,0,.2,0,.2-.1-.2,0-.4,0-.7,0,0,0,.4,0,.4-.2.4.1,1,0,1.6,0ZM123.8,51.8c-.2.1,0,0,0,.2,0,0,0,0,.1,0,0,0-.3,0-.5,0,0,0-.1,0-.1-.2.1,0,.2,0,.2,0,.2,0-.2-.2.4-.2ZM124.7,52.6c.2,0,.7,0,.9-.1,0,.1.8,0,1.4-.2,0,.3-1,.2-1.3.4,0,.1.5,0,.4.1-.2,0-.4,0-.7.1.2-.1,0-.2-.2-.2,0-.1.2,0,.4,0-.3-.1-1.1.1-1.4,0-.3,0,.3,0,.3,0-.1,0-.4-.1,0-.2-.1,0-.2-.1-.3-.1.2-.1.7,0,.7.1-.2,0-.2,0-.5,0,0,.1.2,0,.1.2ZM125.1,52.2c.1-.1.4-.2.7-.2,0,0,0,.1,0,0-.2,0-.3.3-.6.2ZM130.8,51.4c-.1,0,0,0,0,0,0,0-.4.1-.4.2,0,0,.3-.1.2,0-.3,0-.5,0-.6-.1-.2,0-.4,0-.4.2-.9,0,0-.3.3-.5.5,0,.7,0,1.3,0,.2.2-.3.2-.5.3ZM131.2,51.7c0,.2-.6.2-1,.3.2-.1.6-.2,1-.3ZM130,51.7c0,.1-.3.2-.5.2,0-.1.3-.2.5-.2ZM129.4,51.8c-.2,0-.2-.1-.4-.1-.2,0-.1.3,0,.3-.4.1-.3,0-.8,0-.3,0,.2-.2-.1-.2,0-.1.3,0,.4,0,0,0,.2,0,.2-.1,0-.1-.6.1-.4,0-.2,0-.2.1-.5.1,0-.2.8-.2,1.2-.3,0,.2.5,0,.5.3ZM127.9,52.1c-.1.3,0,0,.4,0,0,0,.1,0,.1.1.3-.1.8-.2.9-.1-.2,0-1.1,0-.9.3-.4.3-.9,0-1.1,0-.2,0,0-.1-.1-.2h.7ZM126.7,53.2c-.3.2-.4,0-.4,0-.3.1-1,.4-1.2.2.3,0,.6,0,.5-.2.5,0,.6,0,.9-.1,0-.1-.3,0-.2-.2.4,0,.5,0,.8,0,0,0,0,0,0-.1.2,0,.1,0,.4,0,.3,0-.4.1-.3.2,0,.1.3,0,.5,0-.4.2-.9,0-1.3.2,0,0,0,0,.2,0ZM126.1,52c.6,0,.8,0,1.5-.3,0,.2-1.5.4-1.5.3ZM126,51.8c.2,0,.5,0,.6-.1.4,0-.6.3-.6.1ZM123.7,51.7c0-.2.6-.2,1.1-.3-.1.2-.8.2-1.1.3ZM124.1,52.6c-.2,0-.3,0-.7,0-.1-.1.3-.1.3-.2,0,.1.4,0,.4.2ZM122.8,52.8c-.3,0-.2-.2.2-.2.1.1-.3,0-.2.2ZM122.6,53.9c0,.2-.4,0-.7.2,0-.1.5,0,.7-.2ZM121.6,53.8h0c.3-.2.3,0,.5-.1,0,0-.4.2-.5.1ZM121.4,52.9c0,0,.3,0,.4,0-.2,0,0,.2-.4.2.2-.1,0-.3-.3-.3.2-.3,1,0,1.2-.3.2,0,0,0,.1,0,0,0-.3.1-.4.2,0,0,.3,0,.4,0,0,0-.1,0,0,0-.5.3-.6-.3-1.1,0ZM121,53.6c.2,0,.2-.1.3-.2.2,0,0,0,.1.2-.3,0-.3.1-.6.1-.2,0,0,0,.2,0ZM121.4,53.7c0,.1-.4.1-.7.2.1,0,.5-.2.7-.2ZM118.8,53.8c.3,0,.4,0,.6,0,0,0-.7.2-.6,0ZM119.6,54.2c0,.2-.3.2-.3.3-.3,0-.5,0-.7-.2.3,0,.7-.2.9-.1ZM120,54.5c-.3,0-.4,0-.4-.1h.5c-.2,0,0,0,0,.1ZM118.4,54c-.3,0-.4.2-.8.3,0-.2.4-.2.8-.3ZM118.3,54.3c-.2.2.1,0,.4,0,0,0-.2,0-.3.1-.6,0-1.1,0-1.8.1,0-.1.3-.2.5-.2.4,0,.7.1,1.2,0ZM117,54.2h-.5s0,0-.1,0c0-.1.6-.2.6,0ZM115.7,54.3c.6,0,.3-.2.9-.3-.2.2-.4.2-.4.3-.2,0-.5,0-.5,0ZM114.9,55.9c0-.2.8-.2.9-.2-.2.1-.6,0-.9.2ZM115.5,55.6c.4-.2,1,0,1.3,0-.2.1-.8,0-1.3,0ZM116.7,55.4c-.3,0-.6,0-.7-.2.4,0,.5.1.8,0,0,0,0,0-.2.1ZM117.4,55.6c0-.2-.6.1-.4-.1.4,0,.6,0,1-.2v.2c-.4,0-.2,0-.6.1ZM120.4,55c-.5,0-1.1,0-1.9,0,0-.1,0-.2-.1-.2-.6.2-1.2.2-1.7.2,0-.1,0-.2.2-.3.4,0,.5,0,.9-.1-.2.1,0,0,0,.2,0,0,.2,0,.2,0,0-.2.8-.2.9-.4.2,0,0,.1.1.2.3,0,.6-.1.7,0,0,0,0,0-.2.1,0,0,.2,0,.2,0,.3,0,.5-.2.9-.2-.3,0-.4.2.1.1,0,0-.1.2-.3.2ZM120.6,54.6h-.6c0-.1.4-.3.8-.2-.2,0-.5-.2-.9,0,.4-.2.8,0,1.1-.3-.3.2.2,0,.2.2-.4,0-.3.2.2,0-.3.2-.8,0-.8.3ZM121.3,54.6c.2-.1-.1-.1,0-.2.2,0,.8,0,1.1-.1,0,0-.4.3.1.2-.3.2-.6,0-1.3.2ZM123.9,53.2c.6-.3-.8-.1-1.5,0,.6-.2,1.4-.1,2-.3-.5.3.2.3.5.3-.3.2-.9.1-1,0ZM126.1,53.8h.9c0,0-.9.2-.9,0ZM127.7,54.3c0,0,.6-.2.3-.2.1,0,.4-.1.7-.2,0-.2-.5,0-.6,0-.2,0-.2.2-.4.2-.2,0-.2-.1-.4-.1,0,0,0,0-.2,0,.1,0,.3,0,.4,0-.4.1-.6.2-1.1.3.3,0,.2-.4.5-.3,0-.2-.6,0-.5-.2.3,0,.2-.1.5-.2,0,.2.4,0,.6.2.2-.1.9-.3.9-.2.2-.1.4-.2.8-.3-.1.3-.7.6-1.4.7ZM127.4,53.7c.1-.2.2,0,.4,0,.1.2-.6.1-.2.2,0,0-.2,0-.2.1-.1,0,0,0-.2,0-.1-.1.5-.3.2-.3ZM128,53.7c0-.1.4-.2.6-.2.1.1-.4.1-.6.2ZM129,53.4c0,0,0,.1.2.1,0,.1-.6-.1-.8-.1.2-.2.8,0,1.2-.1-.1.1-.4,0-.6,0ZM130.8,53c0,0,0,0-.1-.2,0,0-.4.2-.4,0-.1,0,0,0,0,0-.1.2-.3,0-.5,0-.3,0-.6.1-.7.2-.7-.1-1.3.2-1.8.4-.8,0-1.9.2-2.6,0,.5,0,1.2-.2,1.7-.3,0,0-.2,0-.3,0,.7.1,1.1-.3,1.6-.4,0,.1-.4.2-.6.3.1.1,0,0,.4,0,0,0-.1,0-.2,0-.2,0,.9-.1.7-.3,0,0,.5,0,.6,0,0,0,0,0,.2,0-.2-.1-.9,0-.7,0-.5,0,.3-.2.9-.2,0,0-.3,0-.4,0,.1,0,0-.2.4-.2h-.3c.4-.3.9-.1,1.1-.4.2,0,0,.2-.3.2.1,0,.4,0,.7,0,0,.1-.7.1-.6.3,0,0,.4,0,.5,0,.3,0,.3-.2.8-.2,0,.1.2,0,0,.2-.1,0,0,0-.2-.1.1.1-1.4.5-1.5.3-.2,0-.3.1-.6.1,0,.2.4,0,.6,0,0,0,0,0,0,.1.7-.2,1.5,0,2.4-.1.3,0-.6.1-.8.2ZM131.4,51.2c.1-.1.3-.2.4-.3.4,0,0,.3.5.1h0c-.3.2-.5,0-.9.2ZM131.6,50.8c0-.1.4-.2.5-.1,0,0,0,0,0,.1-.2,0-.1,0-.4,0ZM131.8,51.9c0,0,0,0,.1,0,.5-.1,1.1-.3,1.6-.3,0,.2-.3,0-.6.1,0,0,.2,0,.3,0,0,.1-.5,0-.5,0-.1,0,0,0,0,.1h-.8c0,0-.2,0-.1,0ZM132.1,52.3c.1-.1,1-.1,1.2-.3.2,0-.4.2.3.1-.6.2-1.2.1-1.5.2ZM133.1,50.7c.1,0,.6-.2.6,0-.3,0-.3,0-.6,0ZM132.9,50.4c.1-.2.8-.2,1.3-.4h0c-.4.3-.8.2-1.3.4ZM133.7,51.2c.1-.2.2,0,.6,0,0,0,0,0,0,.1-.4.1-.3,0-.5,0ZM137.1,51.5c.2-.2.9-.2,1.2-.2-.3.1-1,.2-1.2.2ZM144.2,51.9c.1,0,.2-.2.5-.2,0,0,0,.3-.5.2ZM144.7,51.4c0,0,.2,0,.4,0,0,.1-1.1.3-1,.1.6,0,.6-.4,1.4-.3,0,.1,0,.2-.3.2.4-.2-.2-.2-.5,0ZM145.5,51.8c-.1,0,0,0-.1-.2.3,0,.2,0,.6,0,0,0,0,0-.1,0,0-.2.3,0,.2,0-.3,0-.5,0-.6.1ZM146.5,51.8s0,0,0,0c-.3,0-.6.2-.9.1.4-.2.9-.2,1.2-.2,0,0-.2,0-.4.1ZM151.6,51.5c-.3,0-.4,0-.4,0,.2,0,.2-.1.5-.1,0,0,0,.1,0,.2ZM150.5,50.2c0,0-.9.2-.8,0,.5,0,.3,0,.8,0ZM151.6,50.8c-1.3.3-3.2.5-4.1.7,0-.1.3-.2.4-.3-.5,0-.2.3-.8.4,0,0,.1-.1.2-.2-.2.1-.4,0-.8.1,0,0,0-.1-.1,0-.1,0,0,0,0,0h0c.6,0,1-.1,1.7-.3-.2.1,0,0,0,.2.8,0,2.2-.4,3.7-.5ZM144.8,50.1c-.1.2.2,0,.2.2-.3.2-.2,0-.5,0,.4-.3-.5,0-.5-.2.4,0,.4,0,.7,0ZM145.1,50.5c0,0-.4.2-.6.1,0,0,.2,0,.2-.1.2,0,.2,0,.4,0ZM144.3,50c-.1,0-.5.2-.7.2,0-.1.5-.2.7-.2ZM143.2,50.6c.5,0,.3,0,.5-.1h.2s0,0,0,0c-.4.1-.4,0-.8.2,0,0,0,0,0-.1ZM144.5,50.8c0-.1.9-.2,1.2-.2.1.1-.3.1-.5.2,0,.2.2.1.3.2.2-.2.9,0,1.1-.3.6,0,1.1.1,1.8-.2.1.2-.9.2-1.1.4.1.1.4,0,.6,0,0,0-.2,0-.2.2,0,0,.5-.1.5,0-.5.1-.6,0-.6.3-.3,0-.3,0-.7,0,0,0,0,0,0,0,0,0-.4,0-.3.1-.4,0-.6-.1-1.1,0,.1-.2.5-.2.8-.4-.3.2.5,0,.6,0,.2,0-.1-.1-.1-.2-.4,0-.6.2-.8,0-.3,0,.2,0,0,.2-.2,0-.4,0-.3-.1-.4,0-.3.1-.5,0-.4.1-.6.2-1.1.2,0,0,.1-.1.3-.2,0,0-.1,0-.1,0-.6.1-.1.4-.4.5-.3,0-.4-.1-.8,0-.1-.2-.7-.1-.8-.3,1-.2,1.6-.5,2.2-.3ZM142.5,50.2c0,.1-.3.1-.5.2-.1-.1.3-.2.5-.2ZM141.9,51.4c0,0-.1,0-.2-.2h.3c.1,0,0,0,0,.2ZM136.9,50.9c.1,0,.2,0,.3,0,.9-.6,2.5-.2,2.6-.7.4,0,.9.2,1.9-.2,0,0-.1,0-.2,0,0,0,0,.1.2,0-.5.1-1.1.2-1.8.3-.2,0,0,.2-.2.2.4,0,.3.2.6.2.2-.2.8-.2.8,0,0,0,0,0-.1,0-.3.2-.8,0-1.1.2,0,.1.5-.1.5,0-.2,0-.2,0-.2,0-.4,0-.4.3-1.3.3.1-.1-.1-.2,0-.3.2,0,.3,0,.5,0,0,0,.2,0,.2-.1-.2-.1-.5,0-.8,0,0,0,.3,0,.2-.2.6,0,.3.1.6,0-.2-.1-1.1.1-1.2,0-.3.1,0,.3.3.2-.5.3-.9,0-1.7.2,0-.2,0,0-.3,0-.4,0,.3,0,.2-.1-.3,0-1,.1-.1-.1ZM136,51.2h.4c-.2,0-.3,0-.3.2-.2,0-.3,0-.6,0-.2-.1.5-.2.4,0,.1,0,0,0,0-.1ZM136,50.5c0,0,0,0,.1,0,0,0,0,0,.1,0-.1.2-.6,0-.7.2-.4-.1.6,0,.5-.2ZM135.3,50.9h.4c0,0-.2,0-.2.1.3,0,.3-.1.7,0-.3.2-.5.1-1.1.3-.2-.2.3-.2.2-.3ZM135.1,51.7c.2,0,.6-.1.6-.3.2,0,.3,0,.4.1.3,0,.1-.2.4,0,.2,0,0-.2.2-.2.3.1.2.2.2.3-.6.2-1.6,0-2.2.4-.2,0-.4,0-.7,0,0,0,0,0-.1,0,.4,0,.4-.2.3-.3,0,0,.2,0,.4-.1-.2.3.6,0,.5.1ZM134.5,51.2c.1,0,.1,0,.3,0,0,.1-.6,0-.5.2-.4,0,.2-.2.2-.2ZM134.9,49.7c0,0,.1,0,.1.2-.5,0-.5,0-.9.1,0-.2.6-.2.8-.3ZM133.1,50.1c.1-.2-.3,0-.2-.2,0,0,0,0,.1,0,.3,0,.2-.1.4,0,.1,0,0,0,0-.1.2,0,.3,0,.3-.1.4,0,0,.1.1.2-.4,0-.6.1-.4.2-.2,0-.5,0-.6,0,0,0,.2,0,.3,0ZM133.1,51.5c0,.1-.5,0-.6.2-.4,0,.3,0,0-.1.3,0,.3,0,.5,0ZM132.5,49.9c0,0,0,0,.1,0-.2,0-.4,0-.7.2,0-.1.3-.2.6-.2ZM132.7,50.2s0,0,0,.1c-.3,0-.3,0-.5.1-.3,0,0-.1,0-.2-.3,0-.8.2-.9,0,.4,0,.9-.1,1.4,0ZM130.6,49.9c-.3.2-.5,0-.7,0-.4.3.6,0,.6.3.2,0,.4-.1.6-.2,0,0,.1,0,.2,0-.6.1-.3.3-1,.3,0,.1.9,0,.9,0-.3.1,0,.1,0,.2-.4,0,0-.2-.4,0,0,.2.8,0,.9.2-1.5.1-2.3.7-3.1.5.2,0,.4,0,.3-.1-.2,0-.2,0-.4,0,.2.1-.3.3-.5.2,0,0,.3,0,.2-.2-.2,0-.4,0-.4.1.2,0-1,.3-1.6.3.2-.2.8,0,.8-.2-.3,0-.2,0-.2-.1-.8.1-1.2.4-1.8.6.3-.2-.3,0-.3,0,.4-.1,1-.1,1.1-.4-.3,0-.5,0-.5,0,.7,0,2.5-.5,2.9-.2.4,0,.6,0,.8-.2-.2,0-.5,0-.3,0,0,0,.5,0,.5,0,0,0-.3,0-.2.2.3,0,.5,0,.6-.1-.1,0,.3-.2.5-.1-.3-.1.2-.1.3-.3-.4,0-.7,0-1,0,0,.2.5,0,.4.1-.8,0-2.2.2-3.2.3-.3,0-.9.3-.9.1.1,0,.5,0,.5-.1-.1,0-.2,0-.2,0-.5.2-.9.1-1.3.1,0,.1-.3.2-.6.2,0-.3-.3,0-.4,0,0,0,.2,0,.2-.1-.3.2-.5,0-.7.2.2,0,.6,0,.6,0-.9,0-1.6.1-2.1.3,0,0,0,0,.1,0h.1s0,0,0,0c.3,0,.8-.1,1,0-1.1.2-1.9.4-2.8.4.3,0,.5-.4.9-.3,0,0-.3,0-.3.1.5-.1.6,0,.9,0,0,0,.2,0,.3-.2,0,0,0,0,0,0-.9,0-1.9.2-2.4.4,0,.1.5,0,.6,0-.2.1-.7.2-1,.2.1,0,.2-.2.4-.1,0-.1,0,0,0-.2-.3,0-.4,0-.8,0-.1.2.4,0,.4,0-.3,0,0,.2-.2.3-.8.1-.8,0-1-.1.3,0,.3,0,.5,0-.1-.1-.5-.1-.7-.1-.1.1.3.1,0,.2-1.1.2-1.9.4-1.7,0-1.1.4-1.2.2-2.2.5.1-.1.3-.2,0-.2,0,0,.2,0,.2,0-.2,0-.8.3-.7.3.1,0,.2,0,.4-.1-.3.1.3.1,0,.3,0-.1-.5.3-.8,0,.3,0,.5,0,.5-.2-.3,0-.8.1-.7.2-.3,0-.5.2-.6,0,.2,0,.3-.2.5-.1.1-.2-.3,0-.3,0-.2,0,.2-.2.3-.1-.1,0-.2,0-.2.1.7-.3,1.4-.4,2.4-.6,0,0-.2,0-.2.2h.4c.1-.2-.2-.3,0-.3.2,0,.3,0,.7,0,0-.1-.2,0,0-.2-.4.2-.7.1-.6,0-.1.2-.2,0-.4,0-.3,0-.2.2-.3.3-.3,0-.5,0-.7,0,0,0,.2-.1.3-.2-.4,0-.3.2-.7.2,0,0-.3,0-.2-.1.3-.2.9,0,1-.2-.3,0-.5,0-.8,0,.5-.1.7,0,1-.2,0,0,0,0-.1,0h.6c-.1,0-.3,0-.4,0,.4,0,1.4-.3,1.7-.2.1,0,.3-.2.5-.2l2.1-.3c0,0-.4.2,0,.2,0,0,.2,0,.3,0,0,0,0,0,0-.1h.5c0,0,0,0,0,0h.5c0,0-.1,0-.2,0,.8-.2,1.4-.1,1.4-.3.6,0,1.4-.2,1.7-.1.5-.2,2-.5,1.4,0,.2,0,.3,0,.4,0-.3-.2.3,0,.4-.1-.4,0,.2-.2-.1-.2,0,.1-.4,0-.4,0,.2-.2.5,0,1-.2,0,0,0,0-.1,0h.4c.1,0,.3,0,.7-.2,0,.1.3.1.3.2-.2,0-.2,0-.4.1-.2,0,0,0-.1-.2-.5,0-1.1.1-1.1.3.3,0,.3-.1.5-.1.1.1,0,.1,0,.2.3,0,.5-.1.7-.2,0,.1.5,0,.7,0,0,0-.2,0-.2,0,.1,0,.2,0,.2,0-.3,0-.6,0-.8,0-.1.2.6,0,.5.1.3,0,.5-.2.9-.3,0,.1.1.1,0,.3.3,0,.1-.2.6-.2,0,0-.1.1,0,.2.4,0,.4-.2.6-.3-.1,0-.3,0-.3,0,.3,0,.7-.1.3-.2.3,0,.5,0,.7,0,.2,0-.1-.2.3-.3,0,0,0,.1,0,.2.5,0,1.1-.2,1.3,0ZM163.9,46.7c-.3,0-.1-.2-.5-.1,0,0,.2,0,.3,0,0,.1.3,0,.2.2ZM158.5,48.4c-.3.1,0-.1-.4,0-.1.2.3,0,.2.1-.3,0-.3.1-.4.2-.4,0,0-.2-.5-.1.3-.1.7-.2,1.3-.4,0,0-.3,0-.2.2ZM160.7,47.6c.3-.1,0,.1.3,0,0,0-.3.1-.3.2-.1,0,0-.1,0-.3ZM160.3,48.2c.1-.2.5-.3,1-.4,0,0,0-.1-.1-.1.1,0,.6-.2.9-.1-.7.2-.8.5-1.8.7ZM162.1,47.8c0,.1-.1.2-.4.2,0-.1,0-.2.3-.2,0,0,0,0,.1,0ZM161.3,48.6c0,0,.2,0,.2-.2-.4,0-.4.1-.6,0,.6-.2,1.2-.4,1.8-.3,0,0-.5.1-.3,0-.4,0-.4.1-.7.2-.1,0,.2.2-.4.2ZM163.5,48.4c-.3,0-.9.4-.3.2,0,.1-.6.1-.9.2.6-.3-.8,0-.9-.2.9,0,.6-.2,1.4-.3-.1-.1,0-.1-.1-.3.7-.2,0,.3.6,0-.2,0-.4.2,0,.3.2,0,0-.1-.1,0,.2-.1.5,0,.3.2ZM166.6,47.8c.4,0,.2.2.6,0,.3,0-.6.1-.8.2,0,0,.3,0,.2-.2ZM165.2,46.4c-.3,0-.6,0-.9.3,0,0,.1-.1,0-.1,0,0,.2,0,.4-.1,0,0-.3,0-.4,0-.3,0,.7,0,.5-.2.1,0,.3,0,.5,0,0,0-.2.1-.5.2.1,0,.4,0,.4,0ZM165.5,46.4c0,0,0,0-.2,0,.2-.1,0-.3.5-.3,0,0-.1,0-.2,0,0,0,.5.2,0,.3ZM165.5,44.1c.2,0,.4,0,.4,0-.2.1-.4,0-.4,0ZM166.3,47.4c.2-.1.5-.3,1-.3-.1.2-.8.2-1,.3ZM166.3,46.9c.1,0,0-.2.3-.2,0,0,.1,0,.1.2-.2,0-.3,0-.4,0ZM167.7,46.1c.4,0,.5.1.9,0,0,.2-1.3.2-.9,0ZM167.5,46.3c-.2,0-.2,0-.4,0,0,0,.1,0,.2,0,0,.1-.3,0-.4,0,0,0,.7-.2.6,0ZM167.4,46.7c0,0,0-.1.3-.2-.2,0-.7.1-.7,0,1-.1.9-.1,1.8-.2,0,.1-.5,0-.7.2,0,0,.5,0,.7,0-.1.2-.5,0-.9.2,0,0,.2,0,.3,0-.3.1-.5.1-.9.3,0-.1-.2-.1-.4,0,0,0,.4,0,.5-.1ZM166.8,46.4c.1.1-.5,0-.3.3-.2,0-.7.2-.6,0,.1,0,.5,0,.5-.1,0,0-.2,0-.4,0,0,0,.4-.2.3,0,.3,0,.3-.1.5,0ZM166.2,45.3c.2-.1.2-.2,0-.3h.3c-.1,0,.2.2-.4.3ZM166.4,43.6c.1-.2-.5,0-.5-.1,0,.2-.6,0-.9.2,0,0-.3,0-.2-.1.3,0,.6,0,.8-.2h.4c.1,0,.3,0,.5-.1h.2s0,0,.1,0c.1,0-.4.2,0,.2,0,0,0,.2-.4.2ZM187,41.9c-.1,0-.2,0-.2-.1.3,0,.3,0,.5,0,.2.1-.3,0-.3.2ZM191.2,41.4c0-.2.4-.2.6-.1,0,.2-.3,0-.6.1ZM194.2,40c-.2,0-.2,0-.2-.2.3,0,.4,0,.5-.1.5,0-.2.2-.3.3ZM199.3,39.6c.2-.1,0-.2-.3,0,.2-.1,0-.1,0-.2.2,0,.6,0,.8,0-.1,0,.1.3-.5.3ZM199.5,39c.4,0,.8,0,1.1,0-.2.2-1,.2-1.1,0ZM202,39c.4-.1-.3-.1-.6,0,0,0,.1,0,.1.2,0,0,.2,0,.3,0-.1,0-.3.1-.3.3-.2-.2-.5.2-.7,0-.2,0,.1.1-.2.2-.1,0-.3,0-.4-.2.8-.1,1.1-.3,1.1-.4.3,0,.4,0,.4.1.1,0,.3-.1.6-.1.1.1,0,.3.4,0,0,.2-.5.2-.8.2ZM202.2,38.6c0-.1.8,0,.9-.2.3,0-.6.2-.9.2ZM205.5,39.1c0,.1-.6.2-.7.2.1,0,.4-.1.7-.2ZM203.9,40.5c-.2,0-.4,0-.2-.2.1,0,.4,0,.2.2ZM203.9,39.6c.4,0,.3.1.6,0,0,0,0,0-.2,0,0,0,.4,0,.5,0,0,.1-.2.1-.3.2-.3,0-.6,0-.6,0ZM204.4,40.1c.2-.2.4,0,.8-.2,0,0-.1,0,0,0,0,0-.3,0-.3.1-.2,0-.2-.1-.5,0ZM204.8,40.2c.5,0,.9,0,1.2-.1,0,0-1.1.3-1.2.1ZM206.4,39.3c0-.1.6-.2.5,0-.3,0-.3,0-.5,0ZM190.9,42.8c-.2,0-.6,0-.9.1.3-.3.9-.2,1.8-.5,0,0,0,.1.1.1-.3.2-.9,0-1,.3ZM197.9,42.3c-.2.2-.4.1-.8.2.2,0,.5-.2.8-.2ZM196.1,42.7c0-.1.3-.2.6-.2,0,.1-.4.2-.6.2ZM197.7,43c.1-.2-.9-.2-1.2-.2-.2,0,0-.1-.1-.2.3,0,.3.1.6.1.3,0,.2-.2.6-.2-.5.2.7,0,1,0,0,.1-.2.2.1.2-.4.1-.8.2-1.1.3ZM198.5,42.3s0,0,0-.1c.2,0,.3,0,.3.1-.2,0-.3,0-.4,0ZM208.8,40.8c0,0,0-.1.3-.1-.2,0,.1.2-.3.3,0,0,0,0,0,0,0,0-.4,0-.6,0,.1-.1.2-.1.5-.1ZM206.4,41.2c.4-.1.5-.2.9-.2,0,.2-.6.1-.9.2ZM207.3,41.4c0,0,.1-.1.2-.2.3,0,.6,0,.8,0,0,0-.6.2,0,0,.1.1-.6,0-.9.1ZM208.3,41.4c.3,0,.4-.2.6,0,0,.1-.7.3-.6,0ZM208.2,40.9c.2.1,1.5-.2,1.2,0,.3,0,.2-.1.5-.2,0,.2.3,0,.5,0-.3.2-1.9.3-2.2,0ZM210.1,40.8c-.1,0-.3,0-.5,0,.1-.1.4-.2.5-.3.1,0,0,0,0,0,0,.1.5,0,.3,0-.3,0-.5,0-.3.1ZM210.6,41.5c0,0,0,0-.1,0,0-.2.4,0,.6,0,0,0-.2.1-.5.2ZM210.5,40.7c0,0,.2,0,.4,0h0c0-.2-.5,0-.3-.2.4,0,.7-.2,1,0-.2,0-.9.2-.6.3-.2.1-.6,0-.5,0ZM213.4,40.5c-.1,0,0,0,0,0-.2,0-.5.1-.3.2-.4,0-.8.1-1,0,0,0,.2,0,.3,0-.2-.2-.5.2-.9.3,0-.2-.2,0-.3-.2.9-.2,1.1-.2,1.9-.4-.2,0-.5,0-.8,0,.4-.1.9-.2,1.2-.2.1.1-.5.1-.6.2,0,0,.4,0,.6,0h0c0,0,0,.1,0,.1ZM214.8,39.2c-.3,0-.3-.2-.4-.3.2,0,.6.1.4.3ZM213.6,36.1c.2,0,.1.1.4,0-.2,0-.3.2-.7.3,0-.1.3-.2.3-.3ZM212.9,36h.3s0,0,.1,0c.1.2-.4,0-.4.1,0,0,0,0,0,0ZM208.3,36.7s0,0,0,0c0,0,0,0,0,0h0ZM208.5,36.7h.4c0,0,0,0,0,0,0,0,0,0,0,0h.4c0,0,.1.2.2.2-.2,0-.3,0-.5,0-.2,0,0-.1-.1-.2-.3,0-.6.3-.8.2.1,0,.2-.2.3-.2ZM208.4,37.1c.1,0,0,0,.1.1-.3,0-.4,0-.5,0,0-.2.4,0,.4-.1ZM207.9,36.8s0,0,0,0c-.2,0,.2,0-.2.2-.1,0-.2,0-.3,0h.5ZM207.5,37.3s0,0,.1,0c0,.1-.2.1-.4.2,0,0,0-.2.3-.2ZM208.1,40.2c-.2,0-.2-.2-.6,0,0-.3.3,0,.7-.2,0,0,0,.1,0,.2ZM207.4,39.9c0-.2.9-.2,1.2-.2-.2.2-.7,0-1.2.2ZM208.6,37.6c0,0,0,0-.2,0-.3,0,.4-.1.4-.1.1,0,.1,0,.1.2-.2,0-.3,0-.3,0ZM209.5,40.1c-.2-.1-.4,0-.5-.1.2-.1.1,0,.4,0,0,0-.3,0-.1-.2.2,0,.2,0,.2,0,0,0,.2,0,.3,0h0c-.4.1-.3.3-.3.4ZM209.6,37.2c0-.1,0-.2.4-.3,0,.1,0,.3-.4.3ZM210.1,36.6c-.3,0-.3,0-.4-.1h.4s.1,0,0,.1ZM210.3,36.5c.2,0,.3-.1.5-.2h.1c0,0,.3,0,.5,0,0,0-.1,0-.1,0h.9c0-.1,0,0,0,0-.3,0-.2.1-.4.2-.2-.2-1,.3-1.4.1ZM211,36.7c.4-.1.3-.2.7-.3,0,0-.1.1,0,.1-.3,0-.5.2-.7.3,0,0,.1,0,0,0ZM211.1,39.6c0-.2.3-.2.8-.3,0,.2-.4.3-.8.3ZM211.5,39.7c0,0,.2,0,.3,0,0,0,0-.1.3-.1,0,0-.1.1,0,.1,0,.1-.4,0-.6,0ZM212.7,39.2c-.2,0-.2,0-.4.1-.2,0,0,0,.2,0,0,0-.1,0-.1-.2.4,0,0,.1.4.1,0,0,0,0-.1,0ZM212.9,39c.1,0,.3,0,.3,0,.1,0,.1,0,.1.2-.2,0-.4.1-.4,0ZM212.9,39.3s0,0,0,0h.2c0,.1.3,0,.4,0-.2.2-.4,0-.7,0ZM213.5,39.1c0,0,.2,0,.2-.2.3,0,.5,0,.5.1-.1,0-.2,0-.2,0-.2,0-.1-.2-.5,0ZM214.7,39.4c0,0,.2,0,.3,0-.2.2-.4,0-.9.1v-.2c.4.1.5-.1,1.1-.2,0,0-.2.1-.5.2ZM215.5,38.8c-.3,0,.2,0,0,.2-.4,0-.3,0-.2-.3h.4c-.2,0,.1.1.3,0-.2.2-.3,0-.5,0ZM216.3,40.9c0-.2.2,0,.6-.1,0,0-.4,0-.6.1ZM216.6,39.2h0c0-.1.4-.2.4-.2,0,.1-.1.2-.4.2ZM217.1,38.8c0-.1,0-.2.3-.3.2,0,0,.2-.3.3ZM216.9,35.7c0-.1.3-.1.2-.2.3,0,.4,0,.6,0-.5.1-.5,0-.8.3ZM218.4,38.7h-.5c.1,0,.3,0,.6-.1,0,0,0,0,0,.1ZM224.2,40.6c-.5,0,.4-.3.8-.4-.1,0,0,.2,0,0,.4.3-.8,0-.8.3ZM228,40.1c-.3,0,0,.1-.4.1.2-.2-.5,0-.7-.2-.3,0,.2,0,0,.2-.4-.2.2-.4.5-.6.3,0,.2,0,.5,0-.1.1-.5.2-.6.3.3,0,.6-.1.7,0,0,0,0,0-.1,0ZM263.7,32.9h.7c0,.1,0,.2.1.2-.3,0-.6-.1-.8-.2ZM265.7,33.8c0-.2.3,0,.3-.2.2.1.6.2.7.4-.5,0-.5-.2-1-.2ZM271.4,34c-.1,0-.3,0-.4,0-.4,0-.8-.2-1.2-.3l1.6.2ZM269.1,34.4c.6,0,.4.4-.2.2.1,0,.2-.1.2-.2ZM267.1,34.1v-.2c.6,0,1.7.1,1.7.4-.7,0-1,0-1.7-.3ZM284.2,40.6c-1.4.5-2.8.6-5.6-.1-.6-.2-1.2-.5-1.8-.7-1.1-.3-2.3-.3-2.8-.7.5-.7,3.5,0,4.5-.3.5,0,.4.2.7.3.9.1,1.3.3,1.9.5,1.5.3,4.5.4,5.5,1-.9-.3-1.5.2-2.4,0ZM288.6,39.7c-3.4-.3-5.8-1.1-8.7-1-1.9-.3-3.5-.8-5.8-1.2-2.3-.4-4.7-.8-5.2-1.9.2.2.7.1,1,.2.6.2.9.4,1.4.5.9.2,1.3,0,2.4.1.4,0,.3-.2.5-.2,5.4.4,10.3,1,16.4,2.5-.3.5-2.1,0-2,.9ZM371.3,44.7c.7,0,1.4,0,2,.1,2.6.6,5.6.6,8.5,1.4.7.2,1.1.5,1.8.7.6.2,1.3.2,2,.4.7.2,1.3.4,2,.6l-16.3-3.1ZM399.4,50.2l-1.7-.3c.7,0,1.5.2,2.3.3-.2,0-.4,0-.6,0ZM434.4,53.7c.4,0,.3,0,.6,0,0,.2-.7.1-.6,0ZM434.7,55.8c-.8,0-1.9-.2-2.7-.2-1.1,0-1.7.1-3.3-.1-.6,0-1.3-.2-2-.3-1.5-.2-3.1-.8-4.3-.9-.3,0-.7,0-1,0-.8-.1-1.7-.5-2.5-.7-.1,0-.6,0-.7,0-.4,0-.8-.3-1.2-.4-2.7-.7-6.4-1.1-9.7-1.7-.7-.1-1.3-.3-2-.4-.5,0-1,0-1.4-.1-.9-.2-1.7-.6-2.7-.6,0-.1.3-.2.2-.4.7.3,1.6.1,2.3,0,2.1.3,3.8.3,5.9.5.4.1.7.3,1.1.4,1.4.2,2.9.5,4.2.8,1.5.2,3,.3,4.4.6,1.5.2,3,.9,4.4.7,1.5.3,3.6,1,4.9,1,1.2.5,3.4.7,5,1.2,3.3.3,5.5-.2,9,.9-1.3.1-3.2-.4-4.2-.1-1.3-.3-2.6,0-3.6-.1ZM437.7,57.6c3.2,0,6.6,0,10.6.8,1.2.7,2.4,1.3,3.6,2l-14.2-2.7Z"/>
          <path class="cls-1" d="M317.1,45.9c.3,0,.4,0,.7,0,0,.1,1.8.5,2.1.3-1.9-.3-3.4-.5-5.4-.8.5.4,1.9.2,2.5.5Z"/>
          <path class="cls-1" d="M321.3,46.3c-.2.2-.8,0-1,.2.5,0,.5-.1,1,0-.2-.2.4-.2,0-.2Z"/>
          <path class="cls-1" d="M438.1,62.5c1.1,0,2.5.4,3.4.2-.9,0-2.7-.4-3.4-.2Z"/>
          <path class="cls-1" d="M103,54.5c-.2,0-.4,0-.4,0-.2,0-.5.1-.5.2.4,0,.8-.2,1.1-.1-.2,0-.4,0-.4.1.2,0,.4,0,.4,0-.1,0-.6.1-.3,0,.3,0,.5,0,.6-.2.2,0,.1.2.4.1,0-.2.5-.3.9-.4-.3,0-.9.1-1,.3,0-.1-.5,0-.5,0,.1,0,.5,0,.5-.1-.3,0-.2,0-.6,0,0-.1.2-.2-.1-.2-.2,0,.2,0,0,.2Z"/>
          <path class="cls-1" d="M111,56.1c0-.3-.6,0-.6,0,.2,0,.3,0,.6,0Z"/>
          <path class="cls-1" d="M108.2,54.9c.3,0,.6,0,.8-.2-.3,0-.7,0-.8.2Z"/>
          <path class="cls-1" d="M106,54.6c0,0-.1.1-.2.2.4-.1.8-.2,1.1-.1,0,0,.1,0,0-.1-.3,0-.5,0-.3-.2-.3,0-.1.4-.7.3Z"/>
          <path class="cls-1" d="M104.3,55.6c-.1-.1.7-.2.4-.2-.4.2-1.3,0-1.6.3.3,0,.6,0,.7,0-.7.1-1.1.3-1.4.5.5,0,1-.4,1.4-.3,0,.1-.4,0-.4.2,0,0,.1,0,.1,0,.3,0,0-.1.4-.1.1,0,.2,0,.3,0-.1,0-.3,0-.3,0,.4,0,.9,0,1.2-.2-.2.2.7,0,.8-.1.1.2.6,0,.7,0,0,.2-.7.1-.5.2.2,0,.3,0,.1.1.4,0,.7-.4,1.1-.3-.1,0-.2,0-.2.1.3,0,.8-.1.6-.2,0,.1-.4,0-.3,0,.2,0,.2,0,.4-.1.3,0,.4,0,.7,0,0-.1-.3-.1,0-.2.3,0,.3,0,.2.2.6,0,.9-.1,1.2-.2-.2,0-.3,0-.5,0,.6,0,.7-.3,1.3-.4,0-.2-.4,0-.6,0,0,.2-.8.1-.9.3-.2,0-.6-.2-.8,0,0,0-.3-.2-.4-.1.2,0,0,.2,0,.2-.3,0-.6,0-.8,0-.2,0,.3.2,0,.3-.3,0-.6,0-.6,0,.3,0,.4,0,.4-.2-.5.1-.7,0-.7,0-.3,0-1,0-1,.2.2,0,.1.1.3,0,0-.1.8-.2.8,0h-.5c0,.3.5.1.6.3-.4,0-.4,0-.8,0,0,0,0-.1-.2,0,0,.2-1,.2-1.3.1.3,0,1.1,0,1.4-.3-.2,0-.9.2-1.1,0ZM107.4,55.4c0-.2.2,0,.3,0-.1,0-.3.3-.5.2,0,0,.5-.2.2-.2Z"/>
          <path class="cls-1" d="M97.9,59.1c.2,0,.6,0,.7-.2-.7.1,0,0,0-.1h-.4c.1.2-.5.2-.4.3Z"/>
          <path class="cls-1" d="M99.4,54.1c.4-.1.6,0,.7,0-.4,0,0-.1.1,0,.4-.3-.8,0-.8,0Z"/>
          <path class="cls-1" d="M100.8,54.1c-.2,0-.4,0-.5,0,.2,0,.4,0,.4-.1-.3,0-.3,0-.5,0,0,0,0,.1,0,.2.2,0,.6,0,.7-.1Z"/>
          <path class="cls-1" d="M118,53.3c0,.1-.6.1-.8.3.5,0,1.2-.1,1.4-.3-.3,0-.5,0-.6,0Z"/>
          <path class="cls-1" d="M108.4,54.4c-.1,0-1,.1-.7.2.2-.1.1,0,.2,0,.5-.1.7,0,1.2-.3.2.2.2.1.4.2,0,0,0-.1,0-.3-.3,0-1.1.2-1.2,0Z"/>
          <path class="cls-1" d="M107.4,55c-.2,0-.3.2-.4,0,0-.2.7-.2.8-.3-.7,0-1.1.2-1.5.4.4,0,.9,0,1.1-.1Z"/>
          <path class="cls-1" d="M110.4,53.9h-.7c0,.3.6,0,.7,0Z"/>
          <path class="cls-1" d="M109.9,54.4c.3,0-.1,0,0,.2.1,0,.6,0,.7-.1,0,0-.2-.3,0-.3,0,0,.5,0,.4.1-.2,0-.3,0-.4.1.3,0,.6,0,1,0-.3-.1-.2,0-.5-.1.2,0,0-.1.2-.2.2,0,.4,0,.5,0,0,0-.1,0-.1,0-.5.1-.9.2-1.3.2,0,.1-.4.2-.6.3Z"/>
          <path class="cls-1" d="M111.2,56.3c-.2,0-.3,0-.4,0,.1.1-.2.1-.3.2.2,0,.2,0,.5,0-.2-.2,0,0,.2-.2Z"/>
          <path class="cls-1" d="M105.5,54.1c0,.1,0,.2.2.2,0,0,0,0-.1-.1.3,0,.6,0,.5-.2-.3,0-.3.1-.6.1Z"/>
          <path class="cls-1" d="M110.6,53.9c.2,0,.5,0,.6,0-.2,0-.5,0-.6,0Z"/>
          <path class="cls-1" d="M86.2,59.4c.3,0,.6-.1.7-.2-.2,0-.8,0-.7.2Z"/>
          <path class="cls-1" d="M87.6,59.8c-.2,0-.3.1-.5.2.2,0,.6,0,.6-.1,0,0-.1,0-.1,0Z"/>
          <path class="cls-1" d="M86.4,56.3c.2,0,.8,0,1-.2-.2,0-.9,0-1,.2Z"/>
          <path class="cls-1" d="M110.1,55.8c.2.2-1.1.4-1.1.2.3,0,1.2-.1.8-.2-.5.1-1.4.4-1.7.3.1,0,.1-.1.2-.2-.4,0-.4.2-.5.3-.2,0-.4,0-.5,0,0,.2-.1.2-.5.3.5,0,.6-.1.8-.3,0,.1.9-.2.9,0,.4-.2,1-.2.9,0,0,0,.4,0,.5,0,0,0-.2,0,0-.1.4,0,1-.1,1.2-.2-.2-.1-.5-.2-1,0Z"/>
          <path class="cls-1" d="M84.6,59.9c.2,0,.4,0,.6,0-.2,0-.5,0-.6,0Z"/>
          <path class="cls-1" d="M92.2,56.1s.6,0,.8-.1c-.3.1-.8,0-.8.1Z"/>
          <path class="cls-1" d="M88.8,58.8c0,0-.5,0-.5.1,0,0,.9,0,.5-.1Z"/>
          <path class="cls-1" d="M92.2,55.5c-1.1.2-.2.3,0,0h0Z"/>
          <path class="cls-1" d="M92,55.3c.3,0,.6-.1.7-.2-.2,0-.8,0-.7.2Z"/>
          <path class="cls-1" d="M92.5,57.2c-.2,0,.2,0,0,.2-.1,0-.6.2-.9.1.3.1-.2.1-.3.3.3,0,.5,0,.6,0,.3-.2.7.1.9-.1-.2,0-.4,0-.4,0h.3c0-.2-.2-.1-.2-.2.2,0,.2-.2.5-.3-.1,0-.2,0-.4,0Z"/>
          <path class="cls-1" d="M91.3,57.5c-.2,0-.7,0-.7.2.3,0,.7,0,.7-.2Z"/>
          <path class="cls-1" d="M96,54.8c0,0-.1.1,0,.2.4-.1.1,0,.3,0h.2c0,0,0,0,0-.1-.3,0-.2-.2-.5,0Z"/>
          <path class="cls-1" d="M96.6,54.7c0,.1.2,0,.1.2.2,0,.7,0,.8-.2-.4,0,.3,0,.3-.2-.4,0-.8.3-1.2.2Z"/>
          <path class="cls-1" d="M98.6,59.6c-.1-.1-.3-.2-.7-.2.2,0,.2.3.7.2Z"/>
          <path class="cls-1" d="M96,57.1c-.3,0-.7,0-.8.1.3,0,.8,0,.8-.1Z"/>
          <path class="cls-1" d="M94.3,55.3c0,.1.2,0,.4,0h0c0-.1-.4,0-.4,0Z"/>
          <path class="cls-1" d="M93,57.3c-.2.1,0,0,0,.2.2,0,.3,0,.4-.1,0,0,.2,0,.2,0-.3,0-.2-.2-.5,0Z"/>
          <path class="cls-1" d="M109.7,57.5c.1,0,.2,0,.3,0,0,0,0,0,0,0,.1,0,.2,0,.3,0-.2,0-.6,0-.7.2Z"/>
          <path class="cls-1" d="M86.8,60c-.4,0-.3.2-.6.3-.2-.2-1.3,0-1.4,0,.1,0,.1,0,.2,0-1.7.5-.4.1.5,0,.5,0,.8,0,1,0,0-.1.3-.2.4-.2,0,0-.1,0-.1,0ZM85.1,60.3c0-.1.5,0,.7-.2.1.1-.6.2-.7.2Z"/>
          <path class="cls-1" d="M101.3,56.6c-.3-.1-.8,0-1.1,0-.1.1-.6.2-.6.4.4-.1.8-.3,1.1-.3.2.2,1.3-.3.6,0Z"/>
          <path class="cls-1" d="M101.5,59.2c.2,0,.3,0,.4,0,0,0,.1,0,0-.1-.1,0-.5,0-.5.1Z"/>
          <path class="cls-1" d="M101.5,58.6c0,.1.4.2.5,0-.3,0-.2-.1-.5,0Z"/>
          <path class="cls-1" d="M102.3,58.8c0,0,0,.2.1.2,0-.1.4,0,.3-.2h-.4Z"/>
          <path class="cls-1" d="M99.3,59.5c.6,0,.8-.1,1.4,0v-.2c-.7.2-1.1,0-1.4.3Z"/>
          <path class="cls-1" d="M100.6,57.9c-.6.1,0,0,0-.2-.4,0-.2.1-.5.2,0,.1,0,0,0,.2.3,0,.4,0,.5-.2Z"/>
          <path class="cls-1" d="M100.4,59.1c-.4,0-.6,0-.9.2.4,0,.6,0,.9-.2Z"/>
          <path class="cls-1" d="M99.7,58.7c0,0-.2.1-.2.2.7-.1.3-.3.6-.4-.5,0-.7.1-1.1.3.4,0,.3,0,.7,0Z"/>
          <path class="cls-1" d="M104.3,58.4c-.4,0-.7,0-1.1.2.5,0,.8,0,1.1-.2Z"/>
          <path class="cls-1" d="M100,57.8c-.3,0-.9,0-1,.2.2,0,1,0,1-.2Z"/>
          <path class="cls-1" d="M106.6,57.3c-.2,0-.4.1-.5.2.3,0,.3,0,.4.1,0,0,0-.1.3-.1,0-.1-.3,0-.2-.2Z"/>
          <path class="cls-1" d="M107,57.1c.1,0,.2,0,.3-.1-.1,0-.1,0-.2,0,0,.1-.4.1-.4.2.4,0,.3,0,.1.2.2,0,.3,0,.4-.1,0,.1.2,0,.2,0-.3,0-.3,0-.4,0Z"/>
          <path class="cls-1" d="M108.4,57.5c0,0,.2.1,0,.2-.2,0-.4,0-.7,0,.6.2.8-.2,1.3,0,0,0,0,0,0-.1-.3,0-.4-.2-.6,0Z"/>
          <path class="cls-1" d="M99.3,57.6c.7-.2,1.3.1,1.3-.1.1,0,.1,0,.1.1.2,0,.4,0,.4-.1-.2,0-.4,0-.5-.2.1,0,.2,0,.3,0,0-.1-.2-.1-.3-.2,0,0,0,0-.2,0,0,0,0,.1,0,.2-.5,0-.9-.1-1,.2Z"/>
          <path class="cls-1" d="M116.5,53.6c-.4,0-.6.2-.3.2,0,0,.3-.1.3-.2Z"/>
          <path class="cls-1" d="M109.4,57.2c-.2,0-.4,0-.4,0,0,0,.4,0,0,0,0,0-.3,0-.3,0,.3,0-.2,0-.3,0,0,.1.3,0,.3.1.3-.1.5,0,.7,0,0,0-.1,0-.1-.2Z"/>
          <path class="cls-1" d="M106.5,58c-.2,0-.6,0-.6.1.4-.1.5.2.7,0,0,0-.1,0-.1,0Z"/>
          <path class="cls-1" d="M113.8,54.5c0-.1-.6,0-.6,0,.3,0,.3,0,.6,0Z"/>
          <path class="cls-1" d="M104.7,57.4c-.4.2-1.2.3-1.8.3.1,0,.3,0,.3,0-.9,0-1.7,0-2.3.4.5,0,.7.3,1.2,0h0c0,0-.1,0,0,0,0,0,0,0,0,0h0s0,0,0,0c0,.2-1.1.2-1.7.3-.1,0,0,.2.3.2-.1-.2.9-.2,1.4-.2,0-.3.9,0,1.2-.4-.2,0-.4,0-.5,0,0,0,.1-.1.3-.1,0,.2.7,0,.9.2.4-.3,1-.1,1.6-.3,0,0,.2.1.5,0,.4-.5-1.1-.2-1.4-.4Z"/>
          <path class="cls-1" d="M105.6,56.1c-.2,0-.7,0-.7.2.2,0,.7,0,.7-.2Z"/>
          <path class="cls-1" d="M103.7,56.7c.2,0,0,0,0,.1.2-.1.8-.3.7-.3-.2,0-.6,0-.7.2Z"/>
          <path class="cls-1" d="M102.3,57c.4,0,.5-.1.9-.1,0,0,0-.1-.1-.2-.3.1-.7,0-.8.3Z"/>
          <path class="cls-1" d="M105.4,56.8c-.4,0-.9-.2-1.3,0,.6-.1.8.2,1.3,0Z"/>
          <path class="cls-1" d="M102.6,56.5c-.1,0-.5,0-.5.1.2,0,.3,0,.4,0-.1,0,0,.1.2,0,0-.1-.2,0-.1-.2Z"/>
          <path class="cls-1" d="M102.1,55.8c.2,0,.2,0,.4.1-.1-.1.2-.1.3-.2-.2,0-.3,0-.4,0,0,0-.3,0-.3.2Z"/>
          <path class="cls-1" d="M103.8,56.4c-.2.2-.6,0-.9.2.2,0,.2,0,.2.1.3-.1.3,0,.7-.2,0,0,.1-.1,0-.1Z"/>
          <path class="cls-1" d="M103.4,57.2h-.4c0,.2.7.1.6,0-.1,0-.2,0-.2,0Z"/>
          <path class="cls-1" d="M102.2,57.2c.9-.2,1.7,0,2.5-.3-.9.1-2,0-2.5.3Z"/>
          <path class="cls-1" d="M106.2,56.7c0-.1.2-.2-.1-.2,0,0,0,0,0,0-.1,0-.4,0-.4.1.2,0,.3,0,.6,0Z"/>
          <path class="cls-1" d="M109.4,55.8h0c-.3,0-.4,0-.5,0,.3,0,.3,0,.5,0Z"/>
          <path class="cls-1" d="M102,54.8c.4-.1.6,0,.7-.2-.2,0-.8,0-.7.2Z"/>
          <path class="cls-1" d="M99.9,54.7c.3,0,.5,0,.5-.2-.2,0,0-.2-.4-.1,0,0,0,.1.1.2-.1,0-.2,0-.2.1Z"/>
          <path class="cls-1" d="M103.8,55.2c.3,0,.5,0,.6-.1-.1,0-.6,0-.6.1Z"/>
          <path class="cls-1" d="M107.1,56.1c-.4.2.7.2.5,0-.6,0-1,0-1.3.2,0,0-.3,0-.5,0,0,.2-.3.1-.7.2.2.1,1.6,0,1.9-.2-.2,0,0-.2,0-.2Z"/>
          <path class="cls-1" d="M101.1,57.2c.4,0,.4.3,0,.4,0,0,.1,0,.1,0,0,0,0,0,.1,0,.4-.2,0-.3.6-.3,0,0-.1,0-.1-.2-.3,0-.3.1-.4,0,.2,0,.8-.1.8-.3-.3.2-.9,0-1.1.2Z"/>
          <path class="cls-1" d="M110.3,55.5c-.2,0-.9,0-.8.2.4-.1.7,0,.8-.2Z"/>
          <path class="cls-1" d="M105.7,57.4c.3,0,.7-.2.8-.3-.3,0-.4,0-.6.2-.4-.1-.9.2-1.1.1,0,0,.1,0,.1,0,.3,0,.4,0,.6,0,0,0,0-.1,0-.1,0,.2.3,0,.1.1Z"/>
          <path class="cls-1" d="M110.3,55.4c-.3,0-.7,0-1,.2.4,0,.8,0,1-.2Z"/>
          <path class="cls-1" d="M93.5,55.5c-.2-.2.7-.2.7-.3-.4,0-1.2.1-1.3.2.4,0,0,.1.6,0Z"/>
          <path class="cls-1" d="M28.4,68.7c-.4.1-.8,0-.9.1.1,0,.1,0,.2,0,.3-.2.7,0,.7-.2Z"/>
          <path class="cls-1" d="M25.8,69.5c.6-.1.7,0,1.2,0v-.2c-.6.1-.6-.1-1.2.1Z"/>
          <path class="cls-1" d="M26.9,69.2c.3,0,.4,0,.7,0,.2-.1.3-.1.3-.2,0,0,.1,0,0,0-.5.1-1,0-1.1.3Z"/>
          <path class="cls-1" d="M34.8,69.1c-2.5.4-5.4.9-7.7,1.2,1,0,2.8-.3,4.2-.5,1.3-.2,2.9-.4,3.5-.6Z"/>
          <path class="cls-1" d="M26,71.8c.3,0,.9,0,1-.2,0,0-.9,0-1,.2Z"/>
          <path class="cls-1" d="M24.4,68c-.3.1-.6,0-.8.2.4,0,.8,0,.8-.2Z"/>
          <path class="cls-1" d="M25.8,71.7c-.7,0-1.2.2-1.9.3.7,0,1.5-.1,1.9-.3Z"/>
          <path class="cls-1" d="M25.3,70.5c-.2,0-.4,0-.4.2.2,0,.4,0,.4-.2Z"/>
          <path class="cls-1" d="M25.8,69.6c-.2,0-.5,0-.6,0,0,0,0,.1,0,.1-.1,0-.3,0-.3,0,.6,0,.3,0,1,0,0-.1,0,0,0-.2Z"/>
          <path class="cls-1" d="M23.1,72.2c.3,0,.6,0,.6-.2-.2,0-.7,0-.6.2Z"/>
          <path class="cls-1" d="M33.3,70.4c-.2,0-.5.1-.6.2.2,0,.6-.1.6-.2Z"/>
          <path class="cls-1" d="M32.9,68.1c-.5,0-.5.2-.7.3.6,0,.3,0,.8-.2-.7.1-.3,0-.1-.2Z"/>
          <path class="cls-1" d="M33.6,70.4h.5c0-.3-.5-.1-.5,0Z"/>
          <path class="cls-1" d="M31.6,70.4c.4,0,1,0,1.4-.2-.5,0-1,0-1.4.2Z"/>
          <path class="cls-1" d="M31.4,70.8c-.3,0-.5,0-.6.1.8,0,1.1-.3,1.8-.2v-.2c-.4,0-1.7.3-1.2.3Z"/>
          <path class="cls-1" d="M86.7,60.6c0,0-.3,0-.2.2h.3c0-.1,0-.2-.1-.2Z"/>
          <path class="cls-1" d="M30.8,68.8c.1,0,.7,0,.7-.2-.2,0-.7,0-.7.2Z"/>
          <path class="cls-1" d="M31.5,69c-.1,0-.5.2-.3.2.2-.1.5-.2.6-.4-.2,0-.7,0-.8.2,0,0,.5,0,.5,0Z"/>
          <path class="cls-1" d="M19.2,66.1c.4-.1.5,0,.6-.2,0,0-.6,0-.6.2Z"/>
          <path class="cls-1" d="M34.7,70.3c.3,0,.4-.2.6-.3-.2,0-.6.1-.6.3Z"/>
          <path class="cls-1" d="M20.1,65.6c0,0,1.4-.2,1.2-.4-.3,0-.6,0-.8,0,0,.2-.6.2-.8.3.1,0,.3.1.4,0Z"/>
          <path class="cls-1" d="M19.6,65.7c-.2,0-.5-.2-.8,0,.1,0,.1,0,.2,0,.3-.2.4,0,.6,0Z"/>
          <path class="cls-1" d="M16.8,66.3c.2,0,.7-.1.8-.2-.4.1-.8,0-.8.2Z"/>
          <path class="cls-1" d="M91,51.9c-.2,0-.3,0-.4.1-1.2.2.4.1.4-.1Z"/>
          <path class="cls-1" d="M23,69.9c.3-.1.8-.2,1.1-.3-.4,0-1,0-1.1.3Z"/>
          <path class="cls-1" d="M22.4,65.6c-.1,0-.6,0-.6.1.2,0,.6,0,.6-.1Z"/>
          <path class="cls-1" d="M16.6,72c-.4.1-1,0-1.2.2.2,0,1.3,0,1.2-.2Z"/>
          <path class="cls-1" d="M21.5,68.4c.5-.2,1.1,0,1.4-.3-.4,0-1.1,0-1.4.3Z"/>
          <path class="cls-1" d="M21.5,69.9c-.3,0-.7,0-.8.2.3,0,.7,0,.8-.2Z"/>
          <path class="cls-1" d="M21,70.3c.1,0,.6,0,.6-.1-.2,0-.6,0-.6.1Z"/>
          <path class="cls-1" d="M21.4,72.3c.2-.1-.2-.2-.3-.2,0,.1.2,0,.1.2-.3.2-.7.1-.8.3.9,0,1.7-.3,2.5-.4-.6,0-.9,0-1.5.1Z"/>
          <path class="cls-1" d="M20.8,68.4c-.4.1-1.1.1-1.2.2.7,0,.6,0,1.1,0,0,0,.1-.1,0-.2Z"/>
          <path class="cls-1" d="M17,71.9c.5-.1,1.1,0,1.3-.1-.3,0-.9,0-1.3.1Z"/>
          <path class="cls-1" d="M17.9,69c.3,0,.3,0,.6,0,0,0,.1-.1,0-.2-.2,0-.4.2-.7.3Z"/>
          <path class="cls-1" d="M17.8,72.5c-.1.2.3.2.4,0-.6,0,.4,0,.3-.2h-.7Z"/>
          <path class="cls-1" d="M31.7,68.7c.2,0,.5.1.5.2.2-.1.6-.2.9-.2.1-.2-.3,0-.2-.1-.5.1-.8.1-1.1,0Z"/>
          <path class="cls-1" d="M56.7,65.8c-.4,0-.4.3,0,.3-.1-.2,0-.1,0-.3Z"/>
          <path class="cls-1" d="M61.1,64c.2,0,.5.1.7,0-.2,0-.5-.1-.7,0Z"/>
          <path class="cls-1" d="M68.2,63c-.4.1-.2,0-.4,0,0,0,0,.1-.2.1,0,.2.5,0,.3.2.3,0,.2-.2.3-.3Z"/>
          <path class="cls-1" d="M62.7,63.7s0,0,0,0c0,0,0,0-.1,0,0,0,.2,0,.2,0h-.5c0,.2-.4.2-.3.4h.2c.1-.2.2-.2.5-.2,0,0,.4-.2,0-.1Z"/>
          <path class="cls-1" d="M58.7,65.7c.4,0,.7,0,.9-.2-.3,0-.8,0-.9.2Z"/>
          <path class="cls-1" d="M53.8,63.8c-.2,0-.5,0-.6,0,.2,0,.6.1.6,0Z"/>
          <path class="cls-1" d="M54.6,66.3c-.4,0,0-.1-.2,0-.2,0-.4.1-.6.2-.1-.2-.7,0-.8,0,0,0-.2.1-.3.2.7-.2.9,0,1.5-.2.3,0,0,.2.4.1,0,0-.1-.2.5-.2-.1,0-.3-.1-.5-.1,0,0,.2,0,0,.1Z"/>
          <path class="cls-1" d="M55.5,66.1c.2,0,.2,0,.4,0-.2-.2.4-.1.4-.3-.4,0-.9,0-.8.3Z"/>
          <path class="cls-1" d="M55.9,65.1c-.4,0-.5,0-.8,0,0,0,.1,0,.1.2.1,0,.9-.2.7-.2Z"/>
          <path class="cls-1" d="M35,64.5c.2,0,.7,0,.7-.2-.2,0-.7,0-.7.2Z"/>
          <path class="cls-1" d="M51.3,63.9c-.2,0-.4,0-.5.1,0,0,.6,0,.5-.1Z"/>
          <path class="cls-1" d="M83.7,60.3c0,0,0,.1,0,.1-.2,0-.3,0-.3.1.2,0,.6,0,.6-.1-.5,0,.3-.2-.2-.1Z"/>
          <path class="cls-1" d="M83.9,61.3c-.4.1-.6-.1-.8.1.3,0,.2.1.4,0,.2-.2,1.1-.2,1.3-.4-.5.2-1.1.2-.9.2Z"/>
          <path class="cls-1" d="M85,61c.2,0,.2,0,.2,0,.4,0,.8,0,.5,0,.6,0,.2-.1.4-.2.2,0,.4.2.5,0-.6,0-1-.1-1.6,0Z"/>
          <path class="cls-1" d="M84.7,62c0,.2.9,0,.9-.1-.3,0-.7.2-.9.1Z"/>
          <path class="cls-1" d="M70.8,62.3c-.4.1-.8,0-.9.3.3-.1.8,0,.9-.3Z"/>
          <path class="cls-1" d="M73.9,63.1c-1.6.3-3.8.3-5.9.7,2-.1,4.1-.2,5.9-.7Z"/>
          <path class="cls-1" d="M80.4,61.2c0,0,0,.1-.2.2-.3-.3-1,.2-1.4,0-1.1.2-2.2.6-3.6.6-.3.1-.6.1-.9.4-.3,0,.1-.1,0-.2-.3,0-.6,0-.6.2.1,0,.3,0,.3,0-1,.3-1.5.2-2.4.4,0,0-.1,0,0-.1-.8.1-.9.2-1.5.5.3,0,.7,0,.8-.2,0,0,.2.1.5,0,.1,0,0-.2.2-.2.2,0,.8-.1.9,0-.3,0-.4,0-.5.2.4,0,.4-.2.8-.3,0,0,.1,0,.2,0,1.4-.4,2.6-.5,4.1-.7-.3,0-.9,0-.8.3.5-.2,1.3-.2,1-.3.3,0,.4,0,.4.1,1.9-.4,5-.7,6.6-1.2-1.5.2-2.8.4-4.1.4Z"/>
          <path class="cls-1" d="M69,59.2c-.3,0-.8,0-1,.2.2,0,1.1,0,1-.2Z"/>
          <path class="cls-1" d="M43.5,67.2c-.6,0-.3.2-.8.3,0,0,0,0,.1.1h.2c0-.2.5,0,.6-.3-.3,0-.3,0-.4,0,0,0,.4,0,.3-.2Z"/>
          <path class="cls-1" d="M43.7,67.2c.6,0,.8-.3,1.2-.2,0-.3-1.1.1-1.2.2Z"/>
          <path class="cls-1" d="M44.8,67.3c.3,0,.3,0,.6,0,.7,0-.4-.1-.6,0Z"/>
          <path class="cls-1" d="M39.2,69c-.3,0-.4.1-.5.2.4,0,.4-.1.5-.2Z"/>
          <path class="cls-1" d="M37.5,64.2c.3,0,.6,0,.5-.2-.3,0-.6,0-.5.2Z"/>
          <path class="cls-1" d="M42.3,63.5c.2,0,.5,0,.6-.1-.2,0-.6,0-.6.1Z"/>
          <path class="cls-1" d="M43.2,68.5c.2,0,.6,0,.7,0-.2,0-.6,0-.7,0Z"/>
          <path class="cls-1" d="M47.8,67.5c-.4,0-.5.2-.8.2-.3-.2-1.2,0-1.7,0,.3,0,.2-.1.4-.1,0,.1.5,0,.6,0-1.5,0-2.2.6-3.7.9-.1.2.3,0,.3,0h-.5s.1,0,0,0c-.2,0-.4.1-.6.2.1,0,.4,0,.1.1-.7,0-1.6.1-2.4.2,0,.2.4,0,.5,0-.3.2-.5,0-.9.1.2.1-.2.2-.3.3.4,0,.6,0,.8,0-.3.2-.8.1-1,0,.1,0-.4.1-.5.2.9,0,1.8-.2,2.8-.4,0-.1-.9,0-.6-.2.2,0,1,0,.9-.2-.3,0-.5.2-.7.1.1-.2,1.1-.2,1-.1.1,0,.4-.1.5-.2.3,0,.3.1.7,0,0-.1,0-.2-.1-.2.4-.3.9,0,1.3-.2,0,0-.6,0-.3,0,.2,0,.8,0,.4.1.3,0,.4-.4.8-.3,0,0-.5.2-.2.2.3-.1.2,0,.1,0h.4c.2-.2-.2-.2.2-.3,0,.2.2,0,.4-.1.3,0,.6,0,.9,0,.3,0-.2.2.1.2.1-.2,1,0,1-.3-.5.1-.5,0-.2,0Z"/>
          <path class="cls-1" d="M44.8,68.2c-.2,0-.7.1-.7.2.1,0,.6,0,.8-.2,0,0-.1,0-.1,0Z"/>
          <path class="cls-1" d="M40.8,67.1c-.2,0-.7,0-1,.2.3,0,.9,0,1-.2Z"/>
          <path class="cls-1" d="M40.7,67.4c-.2,0-.7,0-.6.2.3,0,.6,0,.6-.2Z"/>
          <path class="cls-1" d="M40.2,68.3c0,0,.2,0,.3,0,0-.1-.2,0,0-.2-.1,0-.8.1-.5.1.7-.1-.1.1.2.1Z"/>
          <path class="cls-1" d="M46.2,67c.5-.2.8,0,1.2-.2-.5.2-1.1,0-1.2.2Z"/>
          <path class="cls-1" d="M49.3,67.1c-.6.1-2.3.2-2.6.5,1-.4,1.9-.2,2.6-.5Z"/>
          <path class="cls-1" d="M40.8,68.1c.4,0,1.4,0,1.6-.3-.3,0-.2-.1-.6,0,.4.3-1,0-1,.4Z"/>
          <path class="cls-1" d="M41.5,67.1c.4,0,1.1-.1,1.1-.3-.2.1-1,.1-1.1.3Z"/>
          <path class="cls-1" d="M49.9,66.9c1.1,0,2-.2,2.7-.5-.7.2-1.5.2-2.7.4-.5,0-.5.1,0,0Z"/>
          <path class="cls-1" d="M42.1,68c0,.1.5,0,.6,0,0-.2-.3,0-.6,0Z"/>
          <path class="cls-1" d="M109.3,54.7c-.2,0-.5.1-.5.2.6-.2.8,0,1.1,0-.3,0,.3-.1.3-.2-.1,0-.9.2-.9,0Z"/>
          <path class="cls-1" d="M147.2,46.6c.1.1.7,0,.8.2,0-.1.5,0,.5-.1-.3,0-.3,0-.4,0,.3,0,.5-.2.6-.3-.7,0-1,.2-1.4.2Z"/>
          <path class="cls-1" d="M148.8,47c-.3,0-.9,0-1.1.2.5,0,.9,0,1.1-.2Z"/>
          <path class="cls-1" d="M146.9,46.5c-.2.3-1.5.3-1.8.5.8-.1,1.6-.2,2-.4-.1,0-.2,0-.2,0Z"/>
          <path class="cls-1" d="M144.8,47c-.1,0-.5,0-.5.1.2,0,.3,0,.5,0h0Z"/>
          <path class="cls-1" d="M146.5,48c.3-.2,1.1,0,1.3-.3-.3.1-1.5.2-1.3.3Z"/>
          <path class="cls-1" d="M158.7,49c.2,0,.5,0,.6-.2-.2,0-.7,0-.6.2Z"/>
          <path class="cls-1" d="M149.2,46.6c0-.1.2,0,.4,0,0-.1.4-.1.4-.3-.4.1-.6,0-.7,0,0,0,0,0,0,0,0,0-.1,0,0,0,.1,0,.1,0,0,0,0,0,0,.1.2.1Z"/>
          <path class="cls-1" d="M148.3,47.8c0-.1,1,0,1.5-.3-.2,0-.4,0-.2-.1-.5.1-1.5.2-1.7.5.2,0,.4,0,.4,0Z"/>
          <path class="cls-1" d="M148.3,47.4c0,0-.3,0-.2-.1-.4,0-.5,0-.7.2,0,0,.6-.1.7,0-.2,0-.4,0-.3.1.5,0,.8,0,1.6-.2.1-.3-.9,0-1.1,0Z"/>
          <path class="cls-1" d="M154,48.6c0,0,0,0,0-.1-.3,0-.6.1-.6.2-.1,0-.3,0-.5,0,.2.1-.7.2-.3.3,0,0,0,0,0,0,.1,0,.3.2.5,0,0,0-.3,0-.3-.1.4.2.6-.2,1-.2Z"/>
          <path class="cls-1" d="M150.7,48.2c.2-.2,0-.2.6-.3-.3,0-.7,0-.9.1,0,0,.2,0,.2,0-.5,0-.8.1-.3.1-.5.1-.5,0-.8,0,0,.3.6.1,1.3,0Z"/>
          <path class="cls-1" d="M149.6,48.7c-.4.1-.2,0-.5,0,0,.1.1.3.2.2-.3,0,.5,0,.3-.2Z"/>
          <path class="cls-1" d="M156.2,47.9c-.4,0-1.8.3-1.4.1-.6.1-1,.1-1.6.2,0,0,.1,0,.2,0-.3.3-1,0-.5,0-.6,0-1,0-1.7.2.2,0,.2,0,.2,0-.2,0-.3,0-.5,0,0,.2.5,0,.4.2.4-.1,1-.2,1.4-.2-.3.1-.7,0-.9.2.5-.2.3,0,.6,0,.1,0,.3-.1.3-.2,0,0,0,0,.1,0,1.3-.2,2.2-.5,3.4-.5v-.2Z"/>
          <path class="cls-1" d="M158.5,48.9c-.3,0-.2,0-.1-.1-.4.2-.9.1-1.2.4.4,0,.3-.1.8-.2,0,0-.3,0-.2.2.1,0,.2,0,.3,0-.2-.2.5-.1.4-.3Z"/>
          <path class="cls-1" d="M147.1,48.7c-.4,0-.8,0-1,.1,0,0,.1,0,.1,0-.1,0-.3,0-.3,0,.4,0,1,0,1.2-.2Z"/>
          <path class="cls-1" d="M144.9,48.2c.1-.3,2.6-.3,2.7-.7-.3,0-.5.1-.7,0,.1,0,.3-.1.2-.2h-.3c0,.1,0,.2.1.2-.5.1-.7.3-1.3.4,0,0,.2-.2,0-.2-.2.1-.7.1-.8.3,0-.2-.3-.2-.9,0,0,.2.3,0,.4.1-.3,0-.8,0-.8.1.4,0,.9,0,1.4,0Z"/>
          <path class="cls-1" d="M142.7,47.5c-.1.2,1.2-.1,1-.1-.5.1-.7,0-1,.1Z"/>
          <path class="cls-1" d="M145.5,48.7c.5.1,1.4-.2,1.6-.4-.7,0-1.3.2-1.6.4Z"/>
          <path class="cls-1" d="M144.8,47.4c.1.1-.3,0-.2.2.8,0,1.6-.3,2.3-.5-.8-.1-2.3.2-3.1.3.2.1.8,0,.9,0Z"/>
          <path class="cls-1" d="M159.4,45.2c-.1,0-.1,0-.2,0,0,0-.2,0-.4.1,0,.1,0,0,0,.2.4-.1.8,0,.9-.2-.2,0-.4.1-.6,0,.1,0,.1,0,.2,0,0,0,0,0,.1,0Z"/>
          <path class="cls-1" d="M159.5,45.8c.2,0,.2,0,.4-.1,0,0,0,0,.1,0,0,0,0-.2-.1-.2,0,.1-.6,0-.4.2Z"/>
          <path class="cls-1" d="M158.4,45.4c-.1,0-.2,0-.5,0,0,.1.5,0,.5,0Z"/>
          <path class="cls-1" d="M157.8,45.2c.1,0,.3,0,.5,0,0-.2-.5,0-.5,0Z"/>
          <path class="cls-1" d="M162.6,46.8c0,.1-.2,0-.4,0-.1.2.8,0,.4,0Z"/>
          <path class="cls-1" d="M150.1,46c0,.1.2.3.3.2,0,0-.1,0-.1,0,.3,0,.3-.1.4-.2-.3.1-.3,0-.6,0Z"/>
          <path class="cls-1" d="M161,44.9c-.2,0-.5,0-.6,0-.1.3.8.3.7,0-.2,0-.2,0-.1,0Z"/>
          <path class="cls-1" d="M159.2,46.1s0,0,0,0c0,.1,0,.2.2.2-.3,0,.3-.3-.1-.3Z"/>
          <path class="cls-1" d="M158.6,46.6c-.5,0-1,0-1.4,0,.6,0,.7-.4,1.2-.3-.1,0-.2,0-.3.1h.8c0-.2.1-.3,0-.4-.2,0-.2,0,0,0-.3-.2-.6,0-1.2,0,0,0,0,.2-.2.2-.3,0-1,.2-1.7.3-.1-.2-.6,0-.9,0,0,.3-.8,0-1.2.3-.1-.2.5-.3.7-.4-.2,0-.3,0-.3,0-.3,0-.5.2-.6.3.1,0,.2,0,.3,0-.2.1-.5,0-1,.1,0,0,.1,0,0-.1-.5,0-.7,0-1,0-.4.3-1.1,0-1.6.4.2,0,.3,0,.4.1,1.3-.2,2.2-.5,2.6-.3.2.1-.3.4.2.4-.2.1-.3,0-.6,0,0,0,0,0,0,0-.1,0-.5,0-.5.1.4,0-.5.1-.5.2.5,0,.9,0,1.4-.2,0,0-.3.1-.3.2.3-.1.3,0,.7-.1,0,0-.3,0,0-.2,0,.2.5,0,.7,0,.1-.2-.3,0-.3,0,.2,0,0,0,.2-.2.4,0,.8-.2,1.1,0,0-.2.6-.1.9-.3-.1,0-.2,0-.2,0,.4,0,.7-.2,1.2-.2,0,.3,1.4.2,1.5,0ZM154.7,47.2c-.3,0,0-.1,0-.2,0,0,0,0,.1,0,.4-.1.2,0,.5,0,.3,0-.7,0-.6.1Z"/>
          <path class="cls-1" d="M157.9,47.6c-.3,0-.5.2-.6.3.3-.2.9,0,1.5-.2,0-.2.3-.2.7-.3,0-.1.2-.2-.1-.2,0,.2-.7,0-.7.2,0,0,.2,0,.2,0-.5,0-.5.2-1,.2,0,0,.1,0,0-.1Z"/>
          <path class="cls-1" d="M152.1,45.9c0-.1-.2-.1-.4,0,0,.1.2.1.4,0Z"/>
          <path class="cls-1" d="M151.4,46.7c-.2,0-.3,0-.3.1.4,0,.5,0,.8,0,.4-.3,1-.2,1.6-.3,0-.2,0-.2.1-.4-.3,0-.5.2-.6,0,.4,0,0-.1.2-.2.6,0,.8-.1,1.4-.3,0-.1.2-.2,0-.3-.3,0-1.1,0-1.3.2.2,0,.4,0,.5,0-.5,0-.3,0-.4.1-.2,0-.4,0-.5,0,.2,0-.2,0,0-.2-.4,0-.6.2-.7.3.2,0,.4,0,.5,0,0,.1,0,.2-.2.3-1.1.2-1.9.2-2.5.6.4,0,.8-.1,1.1,0Z"/>
          <path class="cls-1" d="M154.1,46c0,.2,1,0,1-.2-.4.2-.6,0-1,.2Z"/>
          <path class="cls-1" d="M152.6,47.3c-.4.1-.5,0-.7.2.3,0,.6,0,.7-.2Z"/>
          <path class="cls-1" d="M151.2,45.8c-.3.2-.1.3.3.3,0-.1,0-.3-.3-.3Z"/>
          <path class="cls-1" d="M155.1,46.3c-.1.2.7,0,.5,0h-.5Z"/>
          <path class="cls-1" d="M154.8,46.7c.3,0,.6-.2.3-.3-.2,0-.2.2-.3.3Z"/>
          <path class="cls-1" d="M155.6,46.6c.2,0,.5-.1.6-.2-.3,0-.8,0-.6.2Z"/>
          <path class="cls-1" d="M197,38.9c-.4,0-1.7.2-1.9.4.5-.1,1.3-.1,1.4-.2-.3,0,.4,0,.5-.2Z"/>
          <path class="cls-1" d="M185.3,43.7c-.2-.1-.1-.3,0-.4-.4,0-.5.1-.7.2-.1.1.4,0,.1.2-1.1.2-1.6.2-2.3.5,1,0,2.4-.4,2.9-.4Z"/>
          <path class="cls-1" d="M165.1,48c-.2,0-.5,0-.7.2.2,0,.6,0,.7-.2Z"/>
          <path class="cls-1" d="M129.1,50.4c0-.1,0-.2,0-.3-.3.1-.6.2-.9.4.3,0,.5,0,.8,0Z"/>
          <path class="cls-1" d="M184.2,43.9c-.3,0-.8.1-.8.3.5,0,.7,0,.8-.3Z"/>
          <path class="cls-1" d="M126.7,51.4c.1,0,.1,0,.1.1.3,0,.6,0,.5-.2-.3.1-.5,0-.6,0Z"/>
          <path class="cls-1" d="M184.8,44.1s0,0,.2,0c.1-.2-.3,0-.2-.2-.2,0-.3,0-.4.1,0,0,.4,0,.4,0-.1,0-.1,0,0,0Z"/>
          <path class="cls-1" d="M182.4,42.7c.2,0,.7,0,.7-.2-.1,0-.7,0-.7.2Z"/>
          <path class="cls-1" d="M185.3,44c0,0,.2,0,.3,0,0,0-.2,0,0-.1.3,0,.2.1.4,0,0-.2-.1-.2-.4-.4.3,0,.3-.2.5-.2,0,0,0,0,.1,0,0,.1-.4,0-.3.2,0,0,.1,0,.1,0h.2c0-.2.7-.3.9-.4-.7-.1-1.2.2-1.8.2,0,.2,0,.2.4.3-.3,0-.6.3-.4.4Z"/>
          <path class="cls-1" d="M194,41.3c-.5,0-.4,0-.8.1,0,0,0,.1.1.2.3-.2.6-.1.7-.3Z"/>
          <path class="cls-1" d="M117.7,51.9c.2,0,.1.1.4,0,0,0,.1-.1,0-.2-.3,0-.4,0-.5.1Z"/>
          <path class="cls-1" d="M123,50.7c0-.2-.6,0-.6,0,.2,0,.3,0,.4-.1,0,0,0,0,.2,0Z"/>
          <path class="cls-1" d="M125.4,50.5c-.3,0-1,0-1.2.2.4,0,.6,0,.9,0,0,0,.6-.3.3-.3Z"/>
          <path class="cls-1" d="M143.7,51.1c0,0,0-.1-.2-.1,0,.2-.2.1-.5,0-.2.3.4,0,.7,0Z"/>
          <path class="cls-1" d="M115.9,52.2c.3,0,.4,0,.7,0v-.2c-.2,0-.7,0-.7.2Z"/>
          <path class="cls-1" d="M122,51c.4-.1.8,0,1-.1-.1,0-.2,0-.2.1,0,0,.6,0,.3,0,0,0-.2,0-.2,0,.2,0,.6-.1.6-.3-.4.1-1.2.1-1.5.3Z"/>
          <path class="cls-1" d="M121.9,50.7c0,.4-1,.4-1.6.5,0-.1.5-.1.6-.3-.2,0-.2,0-.1,0-.7.2-1.6,0-1.5.3-.7,0-.7,0-1.3.2.4,0,1.6,0,1.7-.3.2,0,.3.1.3.2,0,0,.1-.2.3-.2.3.2-.5.3-.9.4.6,0,1.1,0,1.6,0,0,0,.7-.3.6-.1.4,0,.7-.5.2-.5Z"/>
          <path class="cls-1" d="M121.3,51.4c0,0,.1,0,0,0-.8.2-1.8,0-2.3.4.5,0,1.7-.2,2.2-.3Z"/>
          <path class="cls-1" d="M129.3,53c0,0-.1,0-.2,0,0,0,.1,0,.2,0Z"/>
          <path class="cls-1" d="M197.8,39.2c.3,0,.4-.1.5-.2-.2,0-.5,0-.7.1.3,0,.4,0,.2.1Z"/>
          <path class="cls-1" d="M199.8,38.4c-.3,0-.3,0-.5,0,0,0,0,0,0,.1,0,0,.2,0,.2,0,.2,0,.4,0,.4-.2Z"/>
          <path class="cls-1" d="M198.7,38.6c-.2,0-.4.1-.6.2,0,0,0,0-.2,0,0,.1.4,0,.6.1,0-.1.3-.1.2-.2Z"/>
          <path class="cls-1" d="M163.9,44.5c-1,.1-1.3.1-2.4.2,0,.2-.4.1-.4,0-.3.2.3.2.5.2,0-.2.3-.2.5-.1,0,0,0-.1,0-.1.2,0,.3,0,.3,0,0,0-.2,0-.2,0,.1,0,.7-.1.5,0,.4-.2.7,0,1.1-.3-.1,0,0,0,0,0Z"/>
          <path class="cls-1" d="M168.6,45.5c-.3.2-.8,0-.9.3,0,0,.5,0,.6,0,0-.2,0-.1.3-.3Z"/>
          <path class="cls-1" d="M168.2,44.8c.4-.1.7.1.8-.1-.5.1-.6,0-.8.1Z"/>
          <path class="cls-1" d="M194.7,39.2c-.2,0-.6,0-.5.2.3,0,.5,0,.5-.2Z"/>
          <path class="cls-1" d="M200.2,38.5c.8-.2.7-.1,1.1-.5-.2,0-.8.3-.6,0-.7.1,0,.2-.5.4Z"/>
          <path class="cls-1" d="M203.8,37.9c0,0-.1,0-.1-.2h-.2c0,0-.1.1,0,.2.2,0,.2,0,.4,0Z"/>
          <path class="cls-1" d="M209.8,40.2h-.5c0,.3.4.1.5,0Z"/>
          <path class="cls-1" d="M199.7,41.4c-.3,0-1,0-1,.2.5-.1.8,0,1-.2Z"/>
          <path class="cls-1" d="M195.5,42c-.6.1-1,0-1.3.3.2,0,.2,0,.3,0,0-.2.2,0,.2,0,.4-.1.9,0,.9-.2-.2,0-.2,0-.1-.1Z"/>
          <path class="cls-1" d="M110.5,56.9c-.2,0-.6,0-.7.2.3,0,.3,0,.4,0,0,0,.3,0,.3-.2Z"/>
          <path class="cls-1" d="M198,40.2h-.5c-.1.2.7.1.5,0Z"/>
          <path class="cls-1" d="M200,41.2c.3,0,.9-.2,1-.2,0,0,0,0,.1,0-.3-.1-.3-.2-.4-.4-.5,0-.8,0-.8-.1-.2.1-1,.1-1.1.3.4,0,.5-.1.8-.2,0,0,0,0,.1,0-.1.1-.4.2-.4.2-.2,0-.3,0-.4.1.2-.1,0,0,0-.2-.3,0-.9,0-1.1.2.3,0,0,.2,0,.2,0-.1-.6,0-.6-.1-.3,0-.6,0-.8,0,0,.1-.4.1-.4.2h.2s0,0,.1,0c0,0-.1,0,0,0,.1,0,.2,0,.3,0-.1.1,0,0,.2,0,0,0-.1.1,0,.2,1.6-.3,2.5-.3,3.3-.6,0,.1-.2.1,0,.2Z"/>
          <path class="cls-1" d="M189,40.8c.5.1,1.4-.2,1.1-.4,0,0,0,0,0,0-.1-.3-1.2,0-1.2.2.4,0,.2,0,.2,0Z"/>
          <path class="cls-1" d="M204.4,40.7c-.1,0-.2,0-.2,0,.5-.1.7,0,1-.2,0,0,0,.1,0,.2.8-.2-.3-.2,0-.4-.3,0-.2.2-.5.2,0,0,0-.1-.1-.1,0,0-.2,0-.2.1,0,0,.1,0,0,0Z"/>
          <path class="cls-1" d="M195.7,41.2c.7-.3,1.3,0,2-.4,0,.1.2,0,.1.2.4,0,.2-.2.5-.2.2.2.7-.2.5,0,.2-.1.6-.1.7-.3-1,.2-1.7.3-2.5.4.1-.3-.6-.1-.2-.4-.1,0-.3,0-.5,0,.3.2-.3,0-.5.2.5.1-.3.3-.1.5Z"/>
          <path class="cls-1" d="M189.3,40.2h-.5c-.1.2.7.1.5,0Z"/>
          <path class="cls-1" d="M171.3,43.9c0-.2.5-.1.6,0,0-.3-.5,0-.9,0,0,0-.1.1-.2.2.3,0,.4,0,.5,0Z"/>
          <path class="cls-1" d="M161.7,46.2c0,0,.1,0,.1,0,.4-.2,1.4-.2,1.3-.4-.3.3-1,.1-1.4.3h0Z"/>
          <path class="cls-1" d="M172.4,44.7c.1,0,.2,0,.3,0,0,0,.1-.1,0-.2-.6.1,0-.1-.4-.1-.4,0-.3,0-.6,0,.2.1-.3.3-.2.5.4,0,.2-.2.7-.2,0,0,0,0,0-.1,0,0-.2,0-.2,0,.3,0,.3,0,.3.1Z"/>
          <path class="cls-1" d="M171.7,44.3c-.3.1,0,.2-.4.3.5,0,.5-.3.4-.3Z"/>
          <path class="cls-1" d="M172.8,43.4c-.5.1-.9,0-1,.2.4,0,.5-.1.8,0-.3,0,.2.3-.4.3,0,0,.2,0,.2-.2-.2,0-.2.1-.5.1,0,.2.4.2.7.2-.1,0-.2,0-.3,0,.1.1.2,0,.2.1,0,0,.2,0,.5-.1,0,.2.6.2,1.1.2,0-.1.2-.1.2-.2-.2,0-.6,0-.6,0,0,0,.1-.1.3-.2.2,0,.4.1.6.1-.2-.2.3-.2.3-.3-.5.1-.5-.1-1,0,.3.1-.3.2-.4.3,0,0-.3,0-.3,0,.4-.2.1-.3.8-.3,0,0,0-.1,0-.2-.5,0-1,.1-1.2,0,0,0,.1-.1,0-.2ZM173.1,43.8c0,.1-.2.2,0,.3-.3,0-.2-.2,0-.3Z"/>
          <path class="cls-1" d="M174,43.1c.2,0,.6,0,.6-.2,0,0-.6,0-.6,0,.2,0,0,0,0,.1Z"/>
          <path class="cls-1" d="M175.3,42.1c-.1,0-.2.2,0,.2.2-.1.6,0,.8-.3-.2,0-.4,0-.5,0,.2,0,0,0-.2,0Z"/>
          <path class="cls-1" d="M173.9,44.7c-.4,0-.6,0-.7.2.3-.1.5,0,.7-.2Z"/>
          <path class="cls-1" d="M174.2,44.4c.3-.1.5-.2.7-.4-.3.1-.5.2-.7.4Z"/>
          <path class="cls-1" d="M176.6,43.8c.2,0,.2,0,.4-.1,0-.3-.9-.1-1.1,0,.3,0,.5,0,.7,0Z"/>
          <path class="cls-1" d="M178.8,46.2v.2c.2,0,.6,0,.6-.1-.3,0-.3,0-.6,0Z"/>
          <path class="cls-1" d="M177.7,45.5c0,0,.2,0,.2,0-.1,0-.2,0-.2.1.4-.1,1,0,1-.2-.3,0-.8-.2-1,0Z"/>
          <path class="cls-1" d="M179.5,43.2c.3,0,.8,0,.9-.2-.2,0-.2,0-.3,0,.2.2-.6,0-.6.2Z"/>
          <path class="cls-1" d="M177.8,46.1c-.4,0-.7.2-.5,0h-.4c.1.1,0,.2.1.2.2-.2.4,0,.5,0-.2-.1.3,0,.3-.2-.1,0,0,0,0,0Z"/>
          <path class="cls-1" d="M177.5,46.7c-.2,0-.7,0-.6-.1.4-.1.4,0,.7,0,.1-.2-.5,0-.3-.1-.6,0-.8.2-1,.1.1-.1,0-.1,0-.2.1,0,.4,0,.4-.1-.4,0-1.1,0-1.3.3.2,0,.7-.2.7,0-.2,0-.3,0-.4.1.3,0,.3,0,.4.1.3,0,.6-.1.6,0-.2.1-.3.2-.5.3.4,0,1-.1,1.4-.1,0-.2-.4,0-.2-.3Z"/>
          <path class="cls-1" d="M175.6,43.9c-.2,0-.3,0-.6,0,0,.1.7.1.6,0Z"/>
          <path class="cls-1" d="M179.3,44.7c.7-.1,1.1,0,1.4-.3.1,0,.1,0,.1.1.9,0,.8-.5.7-.2-.6,0-2.1,0-2.2.4Z"/>
          <path class="cls-1" d="M122.7,55.1c-.3,0-.4,0-.5,0-.3.2-1.1.2-1.5.4.4,0,.9.2,1.2-.2h.5c-.4,0,.5,0,.2,0,0,0-.1,0-.1,0,0,0,.2,0,.2,0Z"/>
          <path class="cls-1" d="M175.4,46.6c0,0,.1,0,0,0-.3.3-1.1,0-1.1.3.4-.1.5,0,.2,0,0,0,.4,0,.4,0-.2,0,0-.1,0-.1,0,0,0,0,.1,0-.2-.2.5,0,.5-.2,0,0-.2,0-.2,0Z"/>
          <path class="cls-1" d="M168.5,48.3c.4,0,.9,0,1.3-.2-1.2,0-2.7.3-3.8.5.5.1,1.7,0,2.4-.3Z"/>
          <path class="cls-1" d="M163.2,49.4c1.4-.1.4-.2,0,0h0Z"/>
          <path class="cls-1" d="M169.6,47.7c0,0,.1,0,.1,0,.3-.1.5-.1.9-.1,0-.3-.9,0-1,0Z"/>
          <path class="cls-1" d="M168.3,47.7c.5,0,.7,0,1,0,.2-.2.9-.3,1.3-.3,0,0,.1,0,0-.1-.7,0-1.9.2-2.4.4Z"/>
          <path class="cls-1" d="M121.3,56.2h-.3c0,.2.8,0,.9,0-.3,0-.4.1-.6.1h0Z"/>
          <path class="cls-1" d="M170.4,43.3c.1,0,.2.2.4,0-.1,0-.1,0,0,0,0,.2.2,0,.4,0,0,0,0,0,0,0,.3,0,.2-.1.4-.1.2.1.8,0,1.1-.1-.1,0-.1,0-.1-.1-.4.1-.6,0-1,.2.2-.1-.1-.1-.4,0,.1.1-.6,0-.7.2Z"/>
          <path class="cls-1" d="M173.4,46.9c0,.2.2.1,0,.3.3,0,.4-.2.4-.3h-.4Z"/>
          <path class="cls-1" d="M136.9,53.9c.3,0,.6-.2.7-.3-.2,0-.7,0-.8.2.5-.1.3,0,.1.1Z"/>
          <path class="cls-1" d="M160.1,50c.2,0,.7,0,.8-.2-.2,0-.7,0-.8.2Z"/>
          <path class="cls-1" d="M123.6,55.9c.3,0,.8-.1,1.1,0,.2-.1-.5,0-.1-.1,1.4,0,2.9-.6,4.5-.7,0,0,.1,0,0-.1-1.5.3-3.7.6-5.5,1Z"/>
          <path class="cls-1" d="M171.5,45.2c0-.2.6,0,.6-.3-.2,0-.5.1-.8.2-.2,0-.2-.1-.3-.2,0,.2-.6.3-.6,0,.8,0,.8-.6.6-.7-.5.2-.1.6-.8.7,0,0,.3,0,0,.2,0-.1-.2,0-.2,0,.5.1,1-.1,1.5,0Z"/>
          <path class="cls-1" d="M170.7,44c-.4.1-.2-.1-.6,0-.1.2.5.1.6,0Z"/>
          <path class="cls-1" d="M169.8,46.1c0,.1.1.2.4.1,0,0,0-.2-.4-.1Z"/>
          <path class="cls-1" d="M112.8,54.3h0c-.5-.2-.5,0,0,0Z"/>
          <path class="cls-1" d="M170.3,43.4v-.2c-.5,0-.3.2-.6.2,0,.2.2,0,.6,0Z"/>
          <path class="cls-1" d="M113.2,55.5h-.2s0,0-.1,0c-.3.3-1.3.2-1.6.5,0,0,.1,0,.1,0,.4,0,.8,0,.6-.2.8-.2,1.2,0,1.7-.3-.3,0-.9.1-.5,0Z"/>
          <path class="cls-1" d="M171.7,45.9c-.3-.1-.3,0-.4-.3-.4.1-.9,0-1,.2.3,0,.9-.2.9,0-.1,0-.4.1-.5.2.2,0,.3,0,.5,0-.2-.2.1,0,.4-.1Z"/>
          <path class="cls-1" d="M178.2,45.1c.3,0,.2-.1.4-.2-.1,0-.1,0-.2,0,.3,0,.5,0,.5-.2-.3,0-1.6,0-2.2.3-1.6.2-3.3.1-4.8.7,0,0-.1,0-.3,0,0,0,0,.1,0,.2.4,0,.5-.1.7,0-.2.1-.3,0-.4.1,1,0,.9,0,2-.2v.2c.4,0,.2-.2.4-.3,1.3-.2,2.6-.4,4-.8.2.2,0,.1,0,.3ZM173.1,45.6c0,0,.1-.1.3,0,0,0,0-.1.3-.1-.1.1-.3.3-.6.2ZM176.7,45c0-.2.4,0,.6,0,0,.1-.4,0-.6,0Z"/>
          <path class="cls-1" d="M171.8,44c-.3,0-.3,0-.5,0-1.4.1,0,.2.5,0Z"/>
          <path class="cls-1" d="M144.2,49.6c0-.1.3-.1.3-.3-.2,0-.7.3-.3.3Z"/>
          <path class="cls-1" d="M135.4,48.9c-.1,0-.2,0-.4,0,0,0,0,.2.2.2,0,0,.2,0,.2-.1Z"/>
          <path class="cls-1" d="M136.1,50.1c.2,0,.7,0,.7-.2-.2,0-.7,0-.7.2Z"/>
          <path class="cls-1" d="M136.5,48.6h0c0,0,.8,0,.8,0,0-.2-.6,0-.8,0Z"/>
          <path class="cls-1" d="M139.7,52c-.3,0-1.1,0-1,.1-.5,0-.7.2-1.4.2.1.2,1.9-.3,1.7,0,.3,0,.6,0,.9,0,0,0,0-.1,0-.1-.1.1.3.1.3,0-.3,0-.3-.3-.6-.2,0,0,.2,0,0,.1Z"/>
          <path class="cls-1" d="M136.6,52.9c0,0,.1,0,0-.1-.3,0-.5,0-.5.2.2,0,.2,0,.4,0Z"/>
          <path class="cls-1" d="M135.8,53.5c0,0-.2,0-.2,0,.1,0,.2,0,.2,0Z"/>
          <path class="cls-1" d="M134.6,53.2h-.3c0,.2.2.1,0,.2h.2c0,0,.1,0,0,0-.2,0,0,0,0-.1Z"/>
          <path class="cls-1" d="M135.1,52.7c0,.1.7,0,.8,0-.3,0-.5,0-.8,0Z"/>
          <path class="cls-1" d="M136,49.1c-.5.1-.6,0-1,0,0,0,.8.2,1,0Z"/>
          <path class="cls-1" d="M160.7,44.7c-.3,0-.3,0-.6,0,0,.2.6,0,.6,0Z"/>
          <path class="cls-1" d="M161.4,45.8h-.4c0,0,0,.1,0,.1,0,0,0,0,.1,0,0,0,.4,0,.3-.2Z"/>
          <path class="cls-1" d="M161.1,46.2h-.5c-.1.2.7.1.5,0Z"/>
          <path class="cls-1" d="M138.9,49.3c-.2,0-.6,0-.7.1.2,0,.5,0,.7-.1Z"/>
          <path class="cls-1" d="M163.2,45.6c-.5.2-.8,0-1,.2.1,0,.1,0,.2,0,.3,0,.8-.1.8-.3Z"/>
          <path class="cls-1" d="M141.6,48.5c.3-.1.2-.1.2-.3-.5.1-.8,0-1,.2.2,0-.2.1,0,.2.4-.1.4-.1.8-.1Z"/>
          <path class="cls-1" d="M139.1,48.4c.1,0,.7,0,.7-.2,0,0-.8,0-.7.2Z"/>
          <path class="cls-1" d="M140.8,49.6c-.3,0-.9-.2-1.2,0,.6-.1.7.1,1.2,0Z"/>
          <path class="cls-1" d="M187.6,45.1c-.3-.1.2-.2.2-.3-.7,0-1,.5-.2.3Z"/>
          <path class="cls-1" d="M189.1,44c-.3,0-.3,0-.5,0,0,.2-1.1.1-1.2.4.4-.1.7,0,1.3-.2.1.1-.1.1,0,.2.2,0,.2,0,.4-.1-.1-.2,0-.1,0-.3Z"/>
          <path class="cls-1" d="M186.3,45c0,.2-.4,0-.7.3.6-.1,1.1-.1,1.2-.3-.3,0-.1-.1-.5,0Z"/>
          <path class="cls-1" d="M188.2,44.8c.3,0,.6,0,.8-.2-.2,0-.6,0-.8.2Z"/>
          <path class="cls-1" d="M140.3,52.2c-.8,0-1.2.2-1.6.3.5,0,1.6-.3,1.7,0,.3-.2-.4-.1,0-.3,0,0-.1,0-.1,0Z"/>
          <path class="cls-1" d="M179.2,42.2c.3,0,.2-.2.4-.2-.3,0-.4.1-.4.2Z"/>
          <path class="cls-1" d="M183,45.5c-.3.1-.4,0-.6.2.2,0,.5-.2.5,0-.2,0-.8,0-.8.2.8-.1,1.5-.3,2.2-.3-.2-.2-1.4.3-1.4,0Z"/>
          <path class="cls-1" d="M180.4,46.4c.3,0,.3-.1.3-.2-.3,0-.3.1-.3.2Z"/>
          <path class="cls-1" d="M181.4,45.9c-.1,0-.4,0-.4.1.3,0,.1,0,.1.2.5,0,0-.2.3-.3Z"/>
          <path class="cls-1" d="M181.3,45.5c.3,0,.6-.1.7-.2-.1,0-.6,0-.7.2Z"/>
          <path class="cls-1" d="M187.4,44.6c0-.2-.6,0-.4-.3-.4,0-.1.2-.5.2,0,0,0-.1,0-.2h-.4c0,.1,0,.2,0,.2,0,0,0,0-.1,0-.2,0,.1,0,0,.1-.1,0-.4,0-.7,0,0,0,.1,0,.1.2.5-.2,1.2-.1,1.3-.3.2,0,.5,0,.7,0Z"/>
          <path class="cls-1" d="M203.9,42.1c0,0,0,.2.2.2,0-.3.5,0,.7-.2-.2,0-.6,0-.9,0Z"/>
          <path class="cls-1" d="M205,42.2c0,0,.1,0,.1,0,.2,0,.5-.1.5,0,.2,0,.2-.1.5-.1v-.2c-.4.2-.9,0-1.1.2Z"/>
          <path class="cls-1" d="M192.4,40.9s0,0,0,0c0,0,0,0,0,0Z"/>
          <path class="cls-1" d="M189.5,44.6c0,0,0,0-.2,0,0,0-.1.1,0,.2.2,0,.8-.1.4-.1,0,0,0,0,0,0Z"/>
          <path class="cls-1" d="M124.5,54.9c0,0-.7,0-.7.1.2,0,.6,0,.7-.1Z"/>
          <path class="cls-1" d="M192.4,43.5c.3.2,0,0,0,.2.3,0,.7-.1.7,0-.2,0-.3,0-.3.1.5,0,.8-.1,1.1-.1-.5,0-.5-.3-1.5-.2Z"/>
          <path class="cls-1" d="M190.7,43.9c0,0-.1,0-.1-.2-.7,0-.9.1-1.3.3,0,0,.3.2.4,0-.3,0,.5-.2,1-.2Z"/>
          <path class="cls-1" d="M191,44.3c.3.1,1.1,0,1.6-.1-.3-.2-1.1.1-1.6.1Z"/>
        </g>
        <g>
          <path class="cls-1" d="M358,101.5c0,8.9-7.3,16.2-16.2,16.2s-16.2-7.3-16.2-16.2,7.3-16.2,16.2-16.2,16.2,7.3,16.2,16.2ZM352.2,101.5c0-5.7-4.7-10.4-10.4-10.4s-10.4,4.7-10.4,10.4,4.7,10.4,10.4,10.4,10.4-4.7,10.4-10.4Z"/>
          <path class="cls-1" d="M398.5,85.4v32.4l-5.8-4.4-20.8-16v20.5h-5.8v-32.3l5.8,4.4,20.8,16v-20.6h5.8Z"/>
          <path class="cls-1" d="M413,101.5c0,5.7,4.7,10.4,10.4,10.4h16.2v5.8h-16.2c-8.9,0-16.2-7.3-16.2-16.2s7.3-16.2,16.2-16.2h16.2v5.8h-16.2c-5.7,0-10.4,4.7-10.4,10.4Z"/>
          <path class="cls-1" d="M454.6,94.1v3h20.8v5.8h-20.8v6.1c0,1.6,1.3,3,3,3h23.6v5.8h-23.6c-4.8,0-8.7-3.9-8.7-8.7v-14.9c0-4.8,3.9-8.7,8.7-8.7h23.6v5.8h-23.6c-1.6,0-3,1.3-3,3Z"/>
        </g>
        <g>
          <path class="cls-1" d="M293.5,98.5v1.1h7.8v2.2h-7.8v2.3c0,.6.5,1.1,1.1,1.1h8.9v2.2h-8.9c-1.8,0-3.3-1.5-3.3-3.3v-5.6c0-1.8,1.5-3.3,3.3-3.3h8.9v2.2h-8.9c-.6,0-1.1.5-1.1,1.1Z"/>
          <path class="cls-1" d="M317.1,105.2v2.2h-6.2c-.6,0-1.2-.1-1.7-.4-.8-.4-1.4-1-1.8-1.8-.3-.5-.4-1.1-.4-1.7v-8.3h2.2v8.5c.1.8.7,1.4,1.5,1.5h6.4Z"/>
        </g>
        <g>
          <path class="cls-1" d="M137.8,130v8.6h-1.4v-8.6h1.4ZM137.3,130h3.8v1.3h-3.8v-1.3ZM137.3,133.4h3.7v1.3h-3.7v-1.3Z"/>
          <path class="cls-1" d="M152.9,130v8.6h-1.5v-8.6h1.5Z"/>
          <path class="cls-1" d="M171.1,130v9l-6.3-6.2v5.8h-1.4v-9l6.3,6.2v-5.8h1.4Z"/>
          <path class="cls-1" d="M183.1,135.9c.3.5.6.8,1.1,1.1.4.3.9.4,1.4.4s.8,0,1.1-.2c.3-.1.6-.3.9-.4.3-.2.5-.4.7-.6v1.7c-.4.3-.7.5-1.2.7-.4.2-.9.2-1.6.2s-1.2-.1-1.8-.3c-.5-.2-1-.5-1.4-.9-.4-.4-.7-.9-.9-1.4-.2-.5-.3-1.1-.3-1.8s.1-1.3.3-1.8c.2-.5.5-1,.9-1.4.4-.4.9-.7,1.4-.9.5-.2,1.1-.3,1.8-.3s1.2,0,1.6.2c.4.2.8.4,1.2.7v1.7c-.2-.2-.4-.4-.7-.6-.3-.2-.6-.3-.9-.4s-.7-.2-1.1-.2-1,.1-1.4.4-.8.6-1.1,1.1c-.3.5-.4,1-.4,1.6s.1,1.1.4,1.6Z"/>
          <path class="cls-1" d="M200.4,135.6v.3s-1.2,2.7-1.2,2.7h-1.6l4.2-9.1,4.2,9.1h-1.6l-1.2-2.6v-.4s-1.4-3.2-1.4-3.2l-1.4,3.2ZM199.8,135.2h4l.3,1.2h-4.5l.3-1.2Z"/>
          <path class="cls-1" d="M229.3,135.9c.3.5.6.8,1.1,1.1.4.3.9.4,1.4.4s.8,0,1.1-.2c.3-.1.6-.3.9-.4.3-.2.5-.4.7-.6v1.7c-.4.3-.7.5-1.2.7-.4.2-.9.2-1.6.2s-1.2-.1-1.8-.3c-.5-.2-1-.5-1.4-.9-.4-.4-.7-.9-.9-1.4-.2-.5-.3-1.1-.3-1.8s.1-1.3.3-1.8c.2-.5.5-1,.9-1.4.4-.4.9-.7,1.4-.9.5-.2,1.1-.3,1.8-.3s1.2,0,1.6.2c.4.2.8.4,1.2.7v1.7c-.2-.2-.4-.4-.7-.6-.3-.2-.6-.3-.9-.4s-.7-.2-1.1-.2-1,.1-1.4.4-.8.6-1.1,1.1c-.3.5-.4,1-.4,1.6s.1,1.1.4,1.6Z"/>
          <path class="cls-1" d="M246.7,135.6v.3s-1.2,2.7-1.2,2.7h-1.6l4.2-9.1,4.2,9.1h-1.6l-1.2-2.6v-.4s-1.4-3.2-1.4-3.2l-1.4,3.2ZM246.1,135.2h4l.3,1.2h-4.5l.3-1.2Z"/>
          <path class="cls-1" d="M262.8,138.6h-1.5l1.2-9,3.5,5.8,3.5-5.8,1.2,9h-1.5l-.6-5.2-2.6,4.4-2.6-4.4-.6,5.2Z"/>
          <path class="cls-1" d="M282.2,130v8.6h-1.4v-8.6h1.4ZM281.6,130h1.7c.6,0,1.2.1,1.6.3.5.2.8.5,1.1.9.3.4.4.9.4,1.4s-.1,1-.4,1.4c-.3.4-.6.7-1.1.9-.5.2-1,.3-1.6.3h-1.7v-1.3h1.7c.5,0,.9-.1,1.2-.4.3-.2.5-.6.5-1s-.2-.8-.5-1c-.3-.2-.7-.4-1.2-.4h-1.7v-1.3Z"/>
          <path class="cls-1" d="M297.9,130v8.6h-1.4v-8.6h1.4ZM297.4,130h4.3v1.3h-4.3v-1.3ZM297.4,133.4h4.1v1.3h-4.1v-1.3ZM297.4,137.3h4.3v1.3h-4.3v-1.3Z"/>
          <path class="cls-1" d="M313.3,136.7c.2.2.5.4.7.6.3.1.6.2.9.2s.7-.1,1-.3c.2-.2.4-.5.4-.8s0-.6-.2-.8c-.2-.2-.4-.4-.6-.5-.3-.1-.6-.3-1-.4-.2,0-.5-.2-.7-.3-.3-.1-.5-.3-.7-.5s-.4-.4-.6-.7-.2-.6-.2-1,.1-.9.4-1.2c.2-.3.6-.6,1-.8s.9-.3,1.4-.3.9,0,1.3.3.7.4,1,.7c.3.3.5.6.6.9l-1.2.7c-.1-.2-.3-.4-.4-.6-.2-.2-.4-.3-.6-.4-.2-.1-.5-.2-.8-.2s-.7,0-.9.3c-.2.2-.3.4-.3.6s0,.4.2.6c.1.2.3.3.6.5s.7.3,1.1.5c.3,0,.5.2.8.3.3.1.5.3.7.5.2.2.4.4.5.7.1.3.2.6.2,1s0,.8-.2,1.1-.4.6-.6.8-.6.4-.9.5c-.3.1-.7.2-1.1.2s-1-.1-1.4-.3c-.4-.2-.8-.5-1.1-.8-.3-.3-.6-.7-.8-1.1l1.1-.8c.2.3.4.6.6.9Z"/>
          <path class="cls-1" d="M326.9,130h6v1.3h-2.3v7.3h-1.4v-7.3h-2.3v-1.3Z"/>
          <path class="cls-1" d="M344,130v8.6h-1.4v-8.6h1.4ZM343.4,130h1.8c.6,0,1.2.1,1.6.3.5.2.8.5,1.1.9s.4.9.4,1.4-.1,1-.4,1.4c-.3.4-.6.7-1.1.9-.5.2-1,.3-1.6.3h-1.8v-1.2h1.7c.3,0,.6,0,.9-.2.2-.1.4-.3.6-.5.1-.2.2-.5.2-.8s0-.6-.2-.8c-.1-.2-.3-.4-.6-.5-.2-.1-.5-.2-.9-.2h-1.7v-1.3ZM345.9,134.5l2.9,4.1h-1.8l-2.7-4.1h1.6Z"/>
          <path class="cls-1" d="M359.9,130v8.6h-1.4v-8.6h1.4ZM359.4,130h4.3v1.3h-4.3v-1.3ZM359.4,133.4h4.1v1.3h-4.1v-1.3ZM359.4,137.3h4.3v1.3h-4.3v-1.3Z"/>
        </g>
        <g>
          <path class="cls-1" d="M24.2,86.5c2.2-.4,5.5-.7,8.5-.7,4.6,0,7.6.9,9.6,2.7,1.5,1.3,2.5,3.4,2.5,5.8,0,4.1-2.8,6.8-6.1,7.8h0c2.4,1,3.9,3.2,4.7,6.2,1.1,4.3,1.9,7.4,2.6,8.7h-4.3c-.5-.9-1.2-3.4-2.2-7.3-1-4.2-2.8-5.9-6.6-6h-4.6v13.4h-4.1v-30.5ZM28.3,100.5h4.9c4.6,0,7.4-2.3,7.4-5.8s-3.4-5.7-7.7-5.7-3.9.2-4.6.4v11.1Z"/>
          <path class="cls-1" d="M68.1,86v17.5c0,7.3,3.5,10.6,8.2,10.6s8.6-3.4,8.6-10.6v-17.5h4.2v17.3c0,10-5.6,14.1-13,14.1s-12.2-3.8-12.2-14v-17.4h4.2Z"/>
          <path class="cls-1" d="M109.4,111.8c2,1.3,4.9,2.3,8,2.3s6.9-2.1,6.9-5.3-1.7-4.5-6.4-6c-5.9-1.8-9-4.4-9-8.8s4.2-8.5,10.6-8.5,6.1.8,7.6,1.6l-1.2,3.4c-1.1-.6-3.4-1.6-6.6-1.6-4.6,0-6.3,2.6-6.3,4.7s2,4.3,6.7,5.8c5.7,1.9,8.7,4.3,8.7,9.2s-3.4,9-11.5,9-6.9-1-8.8-2.2l1.1-3.4Z"/>
          <path class="cls-1" d="M154.4,89.5h-10.7v-3.4h25.6v3.4h-10.7v27.5h-4.2v-27.5Z"/>
          <path class="cls-1" d="M190.1,86v30.9h-4.2v-30.9h4.2Z"/>
          <path class="cls-1" d="M235.2,115.8c-1.6.8-5,1.7-9.4,1.7-9.6,0-16.9-5.7-16.9-15.7s6.7-16.2,17.9-16.2,7.3,1,8.5,1.6l-1.1,3.3c-1.8-.8-4.4-1.5-7.3-1.5-8.6,0-13.7,5.1-13.7,12.8s4.6,12.3,13.4,12.3,5.7-.6,7.6-1.5l.9,3.2Z"/>
          <path class="cls-1" d="M282.6,101.2c0,10.3-7.3,16.3-16.1,16.3s-15.7-6.6-15.7-15.6,6.8-16.4,16-16.4,15.7,6.7,15.7,15.7ZM255.2,101.7c0,6.7,4.4,12.5,11.5,12.5s11.5-5.5,11.5-12.8-3.9-12.6-11.4-12.6-11.5,6-11.5,12.9Z"/>
        </g>
        <g>
          <path class="cls-1" d="M79.5,75.7s0,0,0,0c0,0,0,0,0,0Z"/>
          <path class="cls-1" d="M78.5,76.8s0,0,0,0c0,0,0,0,0,0Z"/>
          <path class="cls-1" d="M80.9,74.2s0,0,0,0c0,0,0,0,0,0h0s0,0,0,0Z"/>
          <path class="cls-1" d="M82.6,72.8s0,0,0,0h0Z"/>
          <path class="cls-1" d="M83.6,72.2s0,0,0,0h0s0,0,0,0Z"/>
          <path class="cls-1" d="M83.6,72.2s0,0,0,0c0,0,0,0,0,0Z"/>
          <path class="cls-1" d="M76,79.7h0s0,0,0,0Z"/>
          <polygon class="cls-1" points="83.6 72.1 83.6 72.1 83.6 72.1 83.6 72.1"/>
          <path class="cls-1" d="M79.4,75.7h0c0,0,0,0,0,0,0,0,0,0,0,0,0,0,0,0,0,0Z"/>
          <path class="cls-1" d="M82.3,71.6c-.8.1-1.5.3-2.2.6-1.3.5-2.4,1.2-3.3,2.2-.9.9-1.7,2-2.2,3.3-.3.7-.4,1.4-.6,2.2-.1.8-.2,1.7,0,2.7.2,0,.3,0,.4,0,0,0,0,0,0,0h.1c0-.1,0-.2,0-.1,0,0,0,0,0,0,.2-.3.3-.7.6-.9,0,0,0,0,0,0,0,0,0,0,0-.1h0c0-.1,0,0,0,0,0-.2.2-.3.3-.4,0,0,0,0,0,0,0,0,0-.2,0-.1,0,0,.1-.2.2-.1,0,0,0,0,0,0,0,0,0-.1.1-.2,0,0,.2-.3.3-.4,0,0,0,0,0,0h0s0,0,0,0c0,0,0,0,0,0,0,0,0,0,0,0,0,0,0,0,0-.1h0s0,0,0,0c0,0,0,.1,0,0,0,0,0,0,0-.1,0,0,0,0,0,0h0c0,0,0,0,0,0,.1-.2.3-.4.5-.6,0,0,.1-.2.1-.1h0c0,0,0,0,0,0,0,0,0-.1,0,0h0c0-.2.2-.3.3-.5,0,0,0,0,0,0,0-.1.2-.2.2-.3h0c0-.1,0-.1.2-.2,0,0,0,0,0,0,0,0,0,0,0-.2h0s0-.1,0-.1c0,0,.1-.2.2-.2,0,0,0-.1,0-.2,0,0,0,0,0,0,0,0,.1-.1.2-.2,0,0,0,0,0,0,0,0,.1-.2.2-.2,0,0,0,0,0,0,0,0,0,0,0-.1,0,0,0,0,0,0,0,0,.2,0,.2,0h0c0,0,.2,0,.2-.1h0c.1,0,0,0,.2-.2h0s0,0,0-.1h0c0,0,0,0,.1-.1,0,0,0,0,0,0,0,0,.1-.2.2-.2,0,0,0,0,0,0,0,0,0,0,0,0,0,0,0,0,0-.2,0,0,0,0,0,0,0,0,0,0,0,0,0,0,0,0,0,0,0,0,0,0,.2-.2,0,0,0,0,0,0,0,0,.1,0,0,0,.2-.1.4-.4.5-.4,0,0,0,0,0,0h0c0,0,0,0,.1-.2,0,0,0,0,0,0h0c0,0,0,0,0,0,0,0,0,0,0,0,0,0,0,0,0,0,0,0,0-.1,0-.2,0,0,0,0,.1,0,0,0,0,0,0,0,0,0,0,0,0,0,0,0,0,0,0,0h0s0,0,0,0c0,0,0,0,0,0,0,0,0,0,0,0,0,0,0,0,0,0,0,0,0,0,0,0,.1,0,.2-.2.3-.2,0,0,0,0,0,0,0,0,.2-.1.2-.2h0c0,0,0-.1.1-.2h0c0,0,.2-.2.3-.2,0,0,.1,0,.1-.1h0c0,0,0,0,.1,0,0,0,0,0,0,0,0,0,0,0,0,0,0,0,0,0,0,0,0,0,0,0,0,0,0,0,0,0,0,0,.1,0,.2-.2.3-.2h0s0,0,0,0c0,0,0,0,0,0,0,0,0,0,.1,0h0c0,0,0,0,0,0h0s0,0,0,0c0,0,.1,0,.1-.1,0,0,0,0,0,0,0,0,0,0,0,0h0s0,0,0,0c0,0,0,0,0,0,0,0,0,0,0,0,0,0,0,0,0,0,0,0,0,0,0,0,0,0,0,0,.2,0,0,0,.1,0,0-.1,0,0,0,0,0,0,0,0-.1.1-.1.2h0c0,0-.1,0-.1,0,0,0,0,0,0,0h0c0,0-.1,0-.2.1,0,0,0,0,0,0h0s0,0,0,0c-.1,0-.3.2-.4.2,0,0,0,0,0,0h0s0,0,.1,0c0,0,0,0,0,0-.1,0,0,.1-.2.2,0,0,0,0,0,0,0,0-.1.2-.1.2,0,0,0-.1.1-.1,0,0,0,.1,0,.1,0,0,0,0,0,0,0,0,0,0,0,0,0,0,0,0,0,0,0,0-.2,0-.3.2,0,0,0,0,0,0,0,0,0,.2,0,.2,0,0,0,0-.1,0,0,0,0,0,0,0,0,0,0,0,0,0,0,0,0,0,0,0,0,0,0,0,0,0,0,0,0,0,0,0,0,0,0-.1,0-.1,0,0-.2,0-.2,0,0,0,0,.2.1.2,0,0,0,0,0,0,0,0,0,0-.1.1h0c0,0,0,0,0,0,0,0,0,0,0,0,0,0-.1.2-.1.2h.1c0-.1,0,0,0,0h-.1c0,0,0,0,0,0,0,0,0,0,0,0,0,0,0-.3.1-.3h0c0,0,0,0,0,0,0,0,0,.3,0,.3,0,0,0,0,0,0,0,0,0,.2-.1.2h0s-.1,0,0,0c0,0,0,0,0,0h0c0,.1,0,0,0,0,0,0,0,.1,0,0,0,0,0,0-.1,0,0,0,0,0,0,0,0,0,0,0,0,0h0s0,0,0,0c0,0,0,0,0,0h0c0-.1,0,0,0,0h0c0,0,0-.1,0-.2v.3c0,0,0,0,0,0,0,0-.2.2-.2.3h0s0,0,0,0c0,0,0,0,0,0,0,0,0,.1-.1.2,0,0,0,0,0,0,0,0-.1.1,0,.2,0,0,0,0,0,0h0c0,.1,0,0,0,.1,0,0,0-.1.1-.1,0,0,0,0,0,0-.1.1-.1.2-.2.3,0,0,0,0-.1,0h0s0,0,0,0c0,0,0,0,0,0,0,0,0,0,0,0,0,0,0,0,0,0,0,0,0,0,0,0h0c0,0,0,.2,0,.1h0c0,.1,0,.1,0,.2,0,0,0,0,0,0,0,0-.2.1-.2.2,0,0,0,0,0,0,0,0,0,0,0,0h0c0,0,0,0,0,0,0,0,0,.1-.1.2,0,0,0,0,0,0,0,0,0,0,0,0,0,0,0,0,0,0h0s0,0,0,0c0,0,0,0,0,0,0,0,0,0,.1,0,0,0,0,0-.2,0h0c-.1,0,0,0-.2,0,0,0,0,0,0,0h0c0,0,0,0,0,0,0,0,0,0,0,0h0s0,.1,0,.1c0,0,0,0,0,0h0c0,0,0,0,0,0,0,0,0,.1,0,.2,0,0,0,0,0,0h0c0,0-.2.2-.1.3,0,0,0,0,0,0h0s0,0,0,0c0,0-.1.1-.1.2,0,0,0,0,0,0,0,.1,0,0,0,0h0c0,.1-.1.2-.2.2,0,0,0,0,0,0,0,0,0,0,0,0h0s0,0,0,0h0s0,0,0,0c0,0,0,.2-.1.2,0,0,0,0,0,0,0,0,0,0,0,.1,0,0,0,0,0,0,0,0,0,0,0,0,0,0,0,0,0,0h0c0,.1,0,.1,0,.1,0,0,0,0,0,.1,0,0,0,0,0,0,0,0,0,0,0,0,0,0,0,0,0,0,0,0,0,0,0,0,0,0,0,0,0,.1h0s0,0,0,0h0c0,0,0,0,0,0h0s0,0,0,0c0,0,0,0,0,0,0,0,0,0,0,0,0,0,0,0,0,0,0,.2-.1,0-.2.2,0,0,0,0,0,0,0,0-.1,0-.1.2h0s0,0,0,0h0c0,0-.1,0,0,.2,0,0,0,0,0,0,0,0,.1-.2,0-.2,0,0,0,0,0,0,0,0,0,0,0,0,0,0,0,0,0,0,0,0,0,0,0,0,0,0,0,.2-.1.2h0c0,0,0,0,0,0,0,0,0,0,0,.1,0,0,0,0,0,0,0,.1-.1,0-.2.1,0,0,0,.1,0,.1,0,0,0-.2,0,0,0,0,0,.1-.2.3,0,0,0,0,0,0,0,0,0,0,0,.1h0c0,.1,0,0,0,.2,0,0,0,0,0,0,0,0,0,0,0,.1h0c0,.1,0,0-.1.2h0c0,.2-.2.4-.3.5h0s0,0,0,.1c0,0,0,0,0,0,0,0,0,0,0,0h0s0,0,0,0c0,0,0,0,0,0,0,0-.2.3-.2.3,0,0,0-.1,0,0,0,0,0,0,0,0h0c-.1.2-.2.2-.2.4h0s0,0,0,.1c0,0,0,0,0,0,0,.1,0,.2-.1.2.8,0,1.5,0,2.1,0,.8-.1,1.5-.3,2.2-.6,1.3-.5,2.4-1.2,3.3-2.2.9-.9,1.7-2,2.2-3.3.3-.7.4-1.4.6-2.2.1-.8.2-1.7,0-2.7-1.1-.1-1.9,0-2.7,0ZM82.8,72.7c0,0,0,0,0,0,0,0,0,0,0,0ZM82.8,72.6s0,0,0,0c0,0,0,0,0,0,0,0,0,0,0,0ZM83,72.5h0s0,0,0,0c0,0,0,0,0,0ZM81.6,73.8h0c0,0,0,0,0,0h0ZM77.8,77.8s0,0,0,0c0,0,0,0,0,0ZM78.2,77.3h0s0,0,0,0h0ZM78.6,76.8s0,0,0,0h0s0,0,0,0ZM81,74.5s0,0,0,0c0,0,0,0,0,0,0,0,0,0,0,0ZM82.4,73.1s0,0,0,0h0s0,0,0,0ZM82.4,73.2c0,0,0,0,0,0,0,0,0,0,0,0ZM82.6,73.1h0s0,0,0,0h0ZM84.4,71.7s0,0,0,0h0s0,0,0,0ZM84.3,71.8h0s0,0,0,0c0,0,0,0,0,0h0s0,0,0,0ZM84.1,71.8s0,0,0,0h0s0,0,0,0h0s0,0,0,0ZM83.7,72s0,0,0,0c0,0,0,0,0,0,0,0,0,0,0,0ZM83.4,72.3h0s0,0,0,0h0ZM83,72.7h0s0,0,0,0c0,0,0,0,0,0ZM83.1,72.7h0s0,0,0,0h0ZM83.2,72.6h0s0,0,0,0h0ZM83.1,72.5s0,0,0,0h0s0,0,0,0ZM83.2,72.5s0,0,0,0c0,0,0,0,0,0ZM83.2,72.4h0s0,0,0,0h0ZM83.5,72.3s0,0,0,0h0s0,0,0,0ZM83.7,72.1s0,0,0,0c0,0,0,0,0,0,0,0,0,0,0,0,0,0,0,0,0,0,0,0,0,0,0,0,0,0,0,0,0,0h0s0,0,0,0h-.1c0,0,0,0,0,0,0,0,.1,0,0,.1,0,0-.1,0,0,0,0,0,0,0,0,0h0s0,0,0,0c0,0,0,0,0,0,0,0,0,0,0,0,0,0,0,0,0,0h0s0,0,0,0c0,0,0,0,0,0,0,0,0,0,0,0h0c0,0,0,0,0,0,0,0,0,0,0,0,0,0,0,0,0,0,0,0,0,0,0,0,0,0,0,0,0,0,0,0,0,0,0,0,0,0,0,0,0,0,0,0,0,0,0,0,0,0,0,0,0,0,0,0,0,0,0,0,0,0,0,0,0,0,0,0,0,0,0,0ZM83.8,72.1h0s0,0,0,0h0s0,0,0,0ZM83.9,71.9h0s0,0,0,0h0ZM83.9,72s0,0,0,0c0,0,0,0,0,0h0s0,0,0,0c0,0,0,0,0,0h0ZM84,72h0s0,0,0,0h0s0,0,0,0h0s0,0,0,0ZM84.1,72s0,0,0,0c0,0,0,0,0,0,0,0,0,0,0,0,0,0,0,0,0,0,0,0,0,0,.1,0h0s0,0,0,0c0,0,0,0,0,0ZM84.2,71.9c0,0,0,0,0,0,0,0,0,0,0,0ZM84.3,71.8h0s0,0,0,0h0ZM84.4,71.7s0,0,0,0c0,0,.1,0,0,0ZM84.5,71.7c0,0,0,0,0,0,0,0,0,0,0,0,0,0,0,0,0,0,0,0,0,0,0,0ZM84.7,71.8h0s0,0,0,0h0ZM84.9,71.7h0c0,0-.2,0-.2,0,0,0,.2,0,.2,0h0Z"/>
          <path class="cls-1" d="M79.4,75.7s0,0,0,0c0,0,0,0,0,0,0,0,0,0,0,0,0,0,0,0,0,0Z"/>
        </g>
      </g>
    </g>
  </g>
</svg>